<!DOCTYPE svg PUBLIC "-//W3C//DTD SVG 20010904//EN" "http://www.w3.org/TR/2001/REC-SVG-20010904/DTD/svg10.dtd">
<svg version="1.0" xmlns="http://www.w3.org/2000/svg" width="699px" height="380px" viewBox="0 0 6990 3800" preserveAspectRatio="xMidYMid meet"><g fill="#a06c65" stroke="none">
 <path d="M2949 1566 c-1 -3 -2 -9 -3 -13 -1 -5 -5 -13 -9 -20 -4 -6 -3 -14 3 -18 5 -3 11 -4 11 -1 1 3 2 9 3 14 1 4 5 12 9 19 4 6 3 14 -3 18 -5 3 -11 4 -11 1z"/>
 <path d="M3077 1373 c-4 -3 -2 -12 3 -19 6 -6 9 -16 8 -22 -2 -5 1 -12 6 -13 14 -6 15 40 1 51 -7 5 -15 7 -18 3z"/>
 <path d="M3035 1350 c-4 -6 -3 -16 3 -22 6 -6 12 -6 17 2 4 6 3 16 -3 22 -6 6 -12 6 -17 -2z"/>
 <path d="M3205 1250 c-4 -6 -3 -16 3 -22 6 -6 12 -6 17 2 4 6 3 16 -3 22 -6 6 -12 6 -17 -2z"/>
 <path d="M3255 1181 c-3 -6 3 -15 14 -21 12 -6 22 -6 26 -1 3 6 -3 15 -14 21 -12 6 -22 6 -26 1z"/>
 <path d="M3339 1036 c-1 -3 -2 -9 -3 -13 -1 -5 -5 -13 -9 -20 -4 -6 -3 -14 3 -18 5 -3 11 -4 11 -1 1 3 2 9 3 14 1 4 5 12 9 19 4 6 3 14 -3 18 -5 3 -11 4 -11 1z"/>
 <path d="M3279 906 c-5 -23 -2 -46 5 -48 12 -4 15 41 4 48 -4 3 -8 3 -9 0z"/>
 <path d="M3065 810 c-3 -5 0 -13 8 -16 23 -9 152 0 152 11 0 14 -151 19 -160 5z"/>
 </g>

<g fill="#b58969" stroke="none">
 <path d="M1655 3609 c-10 -27 -1 -1019 10 -1022 14 -3 19 1013 5 1027 -6 6 -11 4 -15 -5z"/>
 <path d="M2896 1543 c-4 -5 -12 -8 -17 -8 -5 0 -9 -3 -9 -7 0 -8 3 -9 18 -7 4 1 12 2 17 3 13 1 19 20 8 23 -5 2 -13 0 -17 -4z"/>
 <path d="M2697 1373 c-4 -3 -2 -12 3 -19 6 -6 9 -16 8 -22 -2 -5 1 -12 6 -13 14 -6 15 40 1 51 -7 5 -15 7 -18 3z"/>
 <path d="M2655 1350 c-4 -6 -3 -16 3 -22 6 -6 12 -6 17 2 4 6 3 16 -3 22 -6 6 -12 6 -17 -2z"/>
 <path d="M2306 1041 c-4 -5 -2 -12 4 -16 6 -4 8 -10 5 -15 -3 -5 -1 -11 4 -14 5 -4 12 -2 15 3 4 5 2 12 -4 16 -6 4 -8 10 -5 15 3 5 1 11 -4 14 -5 4 -12 2 -15 -3z"/>
 <path d="M2337 963 c-4 -6 0 -18 7 -28 8 -11 16 -14 19 -8 4 6 0 18 -7 28 -8 11 -16 14 -19 8z"/>
 </g>

<g fill="#51778a" stroke="none">
 <path d="M3536 3611 c-3 -5 5 -16 19 -25 24 -16 45 -6 22 11 -24 19 -36 23 -41 14z"/>
 <path d="M2326 3592 c-3 -6 1 -15 8 -21 8 -7 17 -8 20 -3 3 6 -1 15 -8 21 -8 7 -17 8 -20 3z"/>
 <path d="M3225 3572 c-3 -3 0 -11 6 -18 8 -10 16 -11 31 -3 11 6 17 13 14 17 -8 7 -44 10 -51 4z"/>
 <path d="M3316 3571 c-3 -5 5 -16 19 -25 24 -16 45 -6 22 11 -24 19 -36 23 -41 14z"/>
 <path d="M2659 3566 c-1 -3 -2 -9 -3 -13 -1 -5 -5 -13 -9 -20 -4 -6 -3 -14 3 -18 5 -3 11 -4 11 -1 1 3 2 9 3 14 1 4 5 12 9 19 4 6 3 14 -3 18 -5 3 -11 4 -11 1z"/>
 <path d="M3446 3521 c-9 -14 35 -43 48 -32 6 5 21 11 34 13 12 1 24 8 25 13 3 13 -99 19 -107 6z"/>
 <path d="M3369 3518 c-8 -20 -6 -65 3 -76 18 -21 66 -43 73 -32 6 9 -49 43 -57 35 -2 -3 -3 11 -2 30 2 19 -1 37 -6 40 -6 4 -11 5 -11 3z"/>
 <path d="M2646 3491 c-4 -5 -2 -12 4 -16 6 -4 8 -10 5 -15 -3 -5 -1 -11 4 -14 5 -4 12 -2 15 3 4 5 2 12 -4 16 -6 4 -8 10 -5 15 3 5 1 11 -4 14 -5 4 -12 2 -15 -3z"/>
 <path d="M3525 3481 c-3 -6 3 -15 14 -21 12 -6 22 -6 26 -1 3 6 -3 15 -14 21 -12 6 -22 6 -26 1z"/>
 <path d="M2827 3443 c-4 -6 0 -18 7 -28 8 -11 16 -14 19 -8 4 6 0 18 -7 28 -8 11 -16 14 -19 8z"/>
 <path d="M2159 3426 c-5 -23 -2 -46 5 -48 12 -4 15 41 4 48 -4 3 -8 3 -9 0z"/>
 <path d="M3625 3410 c-4 -6 -3 -16 3 -22 6 -6 12 -6 17 2 4 6 3 16 -3 22 -6 6 -12 6 -17 -2z"/>
 <path d="M3475 3401 c-3 -6 3 -15 14 -21 12 -6 22 -6 26 -1 3 6 -3 15 -14 21 -12 6 -22 6 -26 1z"/>
 <path d="M3544 3369 c-7 -12 35 -32 52 -25 9 3 13 10 10 15 -8 12 -55 20 -62 10z"/>
 <path d="M2455 3359 c-10 -26 -1 -319 10 -322 14 -3 19 313 6 326 -7 7 -12 5 -16 -4z"/>
 <path d="M2495 2881 c-7 -13 17 -24 40 -19 9 1 16 8 16 13 0 14 -48 19 -56 6z"/>
 <path d="M2365 2590 c-3 -6 0 -12 7 -15 25 -10 348 0 351 10 3 14 -349 19 -358 5z"/>
 <path d="M2245 1880 c-4 -6 -5 -25 -4 -43 2 -18 0 -38 -4 -44 -4 -6 -3 -14 3 -18 10 -6 11 -5 14 14 0 5 4 13 9 17 10 11 9 72 -2 79 -5 3 -13 1 -16 -5z"/>
 <path d="M2195 1756 c-11 -8 -14 -16 -8 -19 6 -4 18 0 28 7 11 8 14 16 8 19 -6 4 -18 0 -28 -7z"/>
 <path d="M2125 1751 c-7 -12 12 -24 25 -16 11 7 4 25 -10 25 -5 0 -11 -4 -15 -9z"/>
 </g>

<g fill="#734b3c" stroke="none">
 <path d="M2075 2590 c-3 -5 0 -13 8 -16 24 -9 172 0 170 11 -4 14 -170 19 -178 5z"/>
 <path d="M2075 2470 c-3 -5 0 -13 8 -16 23 -9 177 0 180 11 3 14 -179 19 -188 5z"/>
 <path d="M2345 2470 c-3 -6 0 -12 7 -15 26 -10 1463 0 1463 10 0 14 -1461 19 -1470 5z"/>
 <path d="M2885 1570 c-3 -5 -10 -8 -15 -5 -5 3 -11 1 -14 -4 -4 -5 -2 -12 3 -15 5 -4 12 -2 15 3 7 10 47 3 43 -8 -1 -3 2 -7 8 -8 5 -2 9 7 9 20 1 24 -36 37 -49 17z"/>
 <path d="M2979 1535 c-1 -5 -1 -13 0 -17 0 -5 -3 -7 -8 -5 -5 1 -8 -2 -7 -8 1 -11 35 -15 41 -5 2 4 -2 16 -10 26 -8 10 -15 15 -16 9z"/>
 <path d="M2814 1508 c-6 -9 -4 -10 26 -11 11 -1 19 3 18 8 -4 12 -37 14 -44 3z"/>
 <path d="M2675 1371 c-7 -12 12 -24 25 -16 11 7 4 25 -10 25 -5 0 -11 -4 -15 -9z"/>
 <path d="M3055 1371 c-7 -12 12 -24 25 -16 11 7 4 25 -10 25 -5 0 -11 -4 -15 -9z"/>
 <path d="M2675 1321 c-7 -12 12 -24 25 -16 11 7 4 25 -10 25 -5 0 -11 -4 -15 -9z"/>
 <path d="M3055 1321 c-7 -12 12 -24 25 -16 11 7 4 25 -10 25 -5 0 -11 -4 -15 -9z"/>
 </g>

<g fill="#101011" stroke="none">
 <path d="M2225 3545 c-14 -13 -25 -31 -25 -40 0 -22 45 -65 68 -65 24 0 62 41 62 66 0 25 -39 64 -64 64 -9 0 -28 -11 -41 -25z"/>
 <path d="M2715 3545 c-14 -13 -25 -31 -25 -40 0 -22 45 -65 68 -65 24 0 62 41 62 66 0 25 -39 64 -64 64 -9 0 -28 -11 -41 -25z"/>
 <path d="M2847 1546 c-28 -26 -43 -68 -32 -85 11 -19 23 -12 42 27 16 32 22 37 53 37 31 0 37 -5 53 -38 15 -32 20 -37 32 -27 22 18 18 35 -16 75 -39 44 -91 49 -132 11z"/>
 <path d="M2664 1356 c-10 -26 4 -48 28 -44 17 2 23 10 23 28 0 18 -6 26 -23 28 -13 2 -25 -3 -28 -12z"/>
 <path d="M3044 1356 c-10 -26 4 -48 28 -44 17 2 23 10 23 28 0 18 -6 26 -23 28 -13 2 -25 -3 -28 -12z"/>
 </g>

<g fill="#abb0b0" stroke="none">
 <path d="M1545 2470 c-3 -6 0 -12 7 -15 26 -10 533 0 531 10 -4 14 -529 19 -538 5z"/>
 <path d="M2255 2470 c-3 -5 0 -13 8 -16 23 -8 92 0 92 11 0 14 -92 19 -100 5z"/>
 <path d="M3805 2470 c-3 -5 0 -12 7 -15 25 -10 308 0 311 10 3 14 -309 19 -318 5z"/>
 <path d="M2237 2253 c-4 -6 0 -18 7 -28 8 -11 16 -14 19 -8 4 6 0 18 -7 28 -8 11 -16 14 -19 8z"/>
 <path d="M2955 2219 c-4 -6 -3 -15 3 -21 6 -6 8 -16 6 -23 -3 -7 -1 -16 5 -19 14 -9 25 14 13 26 -6 6 -8 16 -6 23 7 17 -12 29 -21 14z"/>
 <path d="M2858 2178 c-49 -75 -49 -75 -23 -215 13 -71 22 -139 19 -150 -3 -11 -1 -24 5 -27 6 -4 26 23 48 68 l37 75 -25 132 c-13 73 -29 134 -35 136 -6 2 -18 -7 -26 -19z"/>
 <path d="M2975 2129 c-4 -6 -3 -15 3 -21 6 -6 8 -16 6 -23 -3 -7 -1 -16 5 -19 14 -9 25 14 13 26 -6 6 -8 16 -6 23 7 17 -12 29 -21 14z"/>
 <path d="M2856 1681 c-4 -5 -2 -12 4 -16 5 -3 10 -3 10 1 0 3 6 1 14 -5 10 -8 16 -9 21 -1 3 5 4 11 1 11 -3 1 -9 2 -13 3 -5 1 -13 5 -20 9 -6 4 -14 3 -17 -2z"/>
 <path d="M3046 1572 c-3 -6 1 -15 8 -21 8 -7 17 -8 20 -3 3 6 -1 15 -8 21 -8 7 -17 8 -20 3z"/>
 <path d="M2406 852 c-3 -5 8 -21 23 -36 16 -15 31 -23 35 -18 3 5 -8 21 -23 36 -16 15 -31 23 -35 18z"/>
 <path d="M2545 741 c-3 -6 3 -15 14 -21 12 -6 22 -6 26 -1 3 6 -3 15 -14 21 -12 6 -22 6 -26 1z"/>
 <path d="M2945 736 c-11 -8 -14 -16 -8 -19 6 -4 18 0 28 7 11 8 14 16 8 19 -6 4 -18 0 -28 -7z"/>
 <path d="M2626 712 c-3 -6 -2 -13 4 -17 5 -3 10 -3 10 1 0 3 7 1 15 -6 8 -6 19 -9 25 -5 14 9 1 28 -15 21 -7 -2 -17 0 -23 6 -6 6 -12 6 -16 0z"/>
 </g>

<g fill="#db282e" stroke="none">
 <path d="M3179 1343 c-1 -4 0 -41 1 -80 l2 -73 -61 0 c-65 0 -86 -14 -48 -31 50 -23 63 -109 24 -154 -12 -15 -37 -30 -56 -33 -31 -7 -35 -12 -53 -69 -10 -35 -39 -92 -63 -127 -24 -36 -40 -68 -35 -71 10 -6 103 39 155 74 24 17 46 21 111 21 68 0 86 4 109 22 24 19 27 26 22 66 -4 40 -2 48 24 69 77 65 43 204 -56 229 -17 4 -26 15 -30 37 -12 63 -28 118 -36 123 -5 3 -9 2 -10 -3z"/>
 </g>

<g fill="#5f5e5f" stroke="none">
 <path d="M3195 3611 c-3 -6 4 -15 15 -21 11 -6 19 -19 18 -28 -2 -11 2 -16 12 -13 73 19 103 12 120 -28 6 -16 10 -41 8 -56 -3 -25 3 -29 97 -71 136 -59 181 -56 173 13 -3 31 2 28 -202 123 l-118 55 114 5 c68 3 112 9 111 15 -4 13 -339 19 -348 6z"/>
 <path d="M2164 3425 c-15 -23 -15 -27 0 -50 16 -25 18 -25 156 -25 l139 0 3 -157 3 -158 45 0 45 0 3 158 3 157 133 0 c122 0 134 2 152 21 17 19 17 23 3 47 l-15 27 -327 3 -326 2 -17 -25z"/>
 </g>

<g fill="#346392" stroke="none">
 <path d="M3144 3610 c-32 -13 -64 -59 -64 -92 0 -63 32 -154 50 -143 8 5 101 160 112 188 6 13 0 22 -25 37 -35 22 -42 23 -73 10z"/>
 <path d="M2648 3523 c-7 -14 -3 -33 6 -33 12 -1 17 28 6 35 -5 3 -10 2 -12 -2z"/>
 <path d="M2156 3491 c-4 -5 -2 -12 4 -16 6 -4 8 -10 5 -15 -3 -5 -1 -11 4 -14 5 -4 12 -2 15 3 4 5 2 12 -4 16 -6 4 -8 10 -5 15 3 5 1 11 -4 14 -5 4 -12 2 -15 -3z"/>
 <path d="M3293 3328 c-5 -7 -34 -55 -63 -107 l-54 -93 31 -124 30 -123 -105 -3 -106 -3 -36 -62 c-20 -34 -46 -73 -58 -86 -12 -13 -19 -27 -15 -30 3 -4 113 -7 243 -7 l236 0 26 28 c15 15 29 39 33 53 7 29 -120 535 -140 557 -10 11 -14 11 -22 0z"/>
 <path d="M2185 3040 c-3 -5 0 -13 7 -15 26 -10 273 -1 271 10 -4 14 -269 19 -278 5z"/>
 <path d="M2545 3040 c-3 -5 0 -12 7 -15 26 -10 303 0 301 10 -4 14 -299 19 -308 5z"/>
 <path d="M2875 3031 c-6 -11 1 -15 18 -12 4 1 3 -8 -3 -18 -6 -12 -6 -22 -1 -26 6 -3 15 3 20 13 8 15 6 23 -8 36 -13 11 -21 14 -26 7z"/>
 <path d="M2849 2931 l-22 -40 -81 -3 c-106 -4 -105 -22 1 -26 88 -3 92 0 132 75 21 40 -7 34 -30 -6z"/>
 <path d="M2485 2880 c-4 -6 -10 -8 -15 -5 -5 3 -11 1 -14 -4 -4 -5 -2 -12 3 -15 5 -4 12 -2 16 4 4 6 10 8 15 5 5 -3 11 -1 14 4 4 5 2 12 -3 15 -5 4 -12 2 -16 -4z"/>
 <path d="M2245 2849 c-10 -26 -1 -259 10 -259 14 0 19 250 6 263 -7 7 -12 5 -16 -4z"/>
 <path d="M2245 2458 c-9 -22 -2 -68 10 -71 14 -3 19 63 6 76 -7 7 -12 5 -16 -5z"/>
 <path d="M2245 2209 c-10 -26 -1 -334 10 -332 14 4 19 323 6 336 -7 7 -12 5 -16 -4z"/>
 <path d="M3005 2010 c-4 -6 -3 -16 3 -22 6 -6 12 -6 17 2 4 6 3 16 -3 22 -6 6 -12 6 -17 -2z"/>
 </g>

<g fill="#ef9495" stroke="none">
 <path d="M2915 2400 c-4 -6 -3 -16 3 -22 6 -6 12 -6 17 2 4 6 3 16 -3 22 -6 6 -12 6 -17 -2z"/>
 <path d="M2935 2310 c-4 -6 -3 -16 3 -22 6 -6 12 -6 17 2 4 6 3 16 -3 22 -6 6 -12 6 -17 -2z"/>
 <path d="M2669 1761 c-22 -21 -39 -48 -39 -59 0 -15 -9 -21 -34 -26 -67 -13 -238 -148 -222 -175 5 -7 13 -8 25 -1 10 5 48 14 85 20 180 29 373 -66 452 -221 38 -76 46 -106 27 -113 -27 -11 -2 -27 30 -20 18 4 68 10 111 13 101 8 104 12 87 128 -16 112 -52 182 -137 263 -54 52 -115 89 -186 113 -10 4 -18 16 -18 28 0 11 -15 36 -34 55 -49 49 -95 48 -147 -5z m296 -226 c14 -13 25 -34 24 -47 0 -15 -3 -18 -6 -8 -26 71 -110 81 -139 16 l-13 -31 -1 27 c0 33 41 68 82 68 17 0 39 -10 53 -25z m125 -195 c0 -11 -6 -20 -14 -20 -18 0 -29 16 -21 30 11 18 35 11 35 -10z"/>
 <path d="M2902 1168 c-7 -7 -12 -9 -12 -5 0 8 -75 -28 -97 -45 -7 -6 -10 -14 -8 -18 3 -5 31 6 63 23 31 18 63 32 70 32 14 0 18 18 5 22 -5 2 -14 -2 -21 -9z"/>
 <path d="M2397 1153 c-4 -4 -20 -7 -35 -7 -15 -1 -28 -5 -30 -11 -4 -13 24 -19 46 -9 9 4 22 8 27 8 13 1 19 20 8 23 -5 2 -12 0 -16 -4z"/>
 <path d="M2444 1136 c-4 -9 -1 -22 5 -30 6 -7 8 -15 5 -19 -9 -9 35 -99 45 -93 6 4 5 19 -3 39 -7 17 -17 41 -21 52 -4 11 -7 27 -6 37 3 22 -18 33 -25 14z"/>
 <path d="M2726 1061 c-21 -21 -34 -41 -29 -44 6 -4 27 11 47 32 21 21 34 41 29 44 -6 4 -27 -11 -47 -32z"/>
 <path d="M2670 991 c-6 -12 -6 -22 -1 -26 6 -3 15 3 21 14 6 12 6 22 1 26 -6 3 -15 -3 -21 -14z"/>
 <path d="M2526 952 c-3 -5 3 -17 13 -26 11 -10 22 -13 25 -8 3 5 -3 17 -13 26 -11 10 -22 13 -25 8z"/>
 <path d="M2640 930 c-6 -11 -8 -20 -4 -20 3 0 1 -6 -5 -13 -6 -8 -7 -18 -3 -23 4 -5 -3 -1 -15 9 -26 22 -40 6 -14 -17 17 -15 19 -15 36 4 10 11 15 20 11 20 -3 0 1 11 9 24 10 15 12 26 6 30 -5 4 -15 -3 -21 -14z"/>
 <path d="M2906 721 c-4 -6 -13 -8 -20 -5 -17 7 -30 -12 -16 -21 6 -4 16 -2 23 3 7 6 15 11 20 11 8 1 11 11 4 17 -3 3 -8 1 -11 -5z"/>
 </g>

<g fill="#d65f46" stroke="none">
 <path d="M3167 1374 c-3 -4 -2 -15 4 -26 5 -10 7 -23 4 -28 -7 -11 12 -23 25 -15 6 4 7 12 3 18 -4 7 -8 18 -10 26 -2 18 -18 33 -26 25z"/>
 <path d="M2944 1175 c-82 -18 -137 -47 -201 -107 -48 -47 -113 -151 -113 -185 0 -23 -16 -14 -63 36 -52 56 -82 109 -101 184 -11 42 -17 51 -32 49 -11 -2 -46 -5 -79 -6 -32 -2 -61 -8 -63 -14 -7 -23 20 -123 51 -184 89 -181 309 -297 490 -259 55 12 61 16 102 72 38 52 85 151 85 179 0 6 10 10 21 10 12 0 39 17 60 39 31 31 39 46 39 75 0 49 -23 92 -60 111 -34 18 -55 18 -136 0z"/>
 <path d="M3267 949 c-14 -9 -15 -14 -5 -32 7 -12 11 -27 10 -34 -1 -6 2 -14 7 -17 14 -9 24 13 14 27 -11 14 -11 27 0 44 10 16 -5 23 -26 12z"/>
 <path d="M2955 746 c-11 -8 -14 -16 -8 -19 6 -4 18 0 28 7 11 8 14 16 8 19 -6 4 -18 0 -28 -7z"/>
 </g>

<g fill="#347ebe" stroke="none">
 <path d="M3100 3585 c-6 -8 -13 -20 -14 -27 -2 -7 -7 -21 -11 -31 -4 -11 -3 -23 3 -29 8 -8 13 -7 18 6 4 9 4 20 1 23 -4 3 3 18 13 34 21 28 12 50 -10 24z"/>
 <path d="M2347 3573 c-4 -6 0 -18 7 -28 8 -11 16 -14 19 -8 4 6 0 18 -7 28 -8 11 -16 14 -19 8z"/>
 <path d="M3243 3560 c-19 -11 -50 -49 -76 -95 -25 -42 -49 -77 -53 -78 -4 -1 -9 -9 -9 -17 -1 -8 -53 -103 -116 -210 -64 -107 -126 -214 -139 -237 l-24 -43 -176 0 c-169 0 -177 -1 -208 -23 -69 -51 -98 -117 -89 -203 3 -29 8 -58 12 -64 8 -13 352 -14 360 -1 3 6 1 28 -4 50 l-9 41 327 2 c211 2 325 7 324 13 -2 6 -84 11 -214 13 l-212 2 19 21 c17 18 145 233 290 486 33 56 63 101 69 100 5 -1 9 4 7 11 -1 8 11 37 28 67 40 70 40 116 1 156 -34 34 -64 37 -108 9z"/>
 <path d="M3411 2726 c-7 -8 -8 -17 -3 -20 6 -3 15 1 21 8 7 8 8 17 3 20 -6 3 -15 -1 -21 -8z"/>
 </g>

<g fill="#e3e3e3" stroke="none">
 <path d="M2284 2409 c-32 -12 -65 -55 -66 -86 -1 -17 39 -125 91 -246 50 -119 91 -218 91 -221 0 -3 12 -31 26 -61 27 -57 62 -85 105 -85 11 0 34 -11 51 -25 23 -20 33 -23 49 -15 11 6 19 21 19 36 0 69 99 99 160 48 23 -20 34 -24 42 -16 25 25 21 125 -11 287 -17 88 -32 171 -34 185 l-4 25 -136 3 -137 3 0 80 c0 55 -4 81 -12 84 -26 8 -215 12 -234 4z"/>
 <path d="M2883 2225 c-8 -23 41 -278 54 -282 7 -3 25 22 41 54 l29 58 -17 77 c-10 42 -20 84 -23 92 -8 21 -75 22 -84 1z"/>
 </g>

<g fill="#3b4752" stroke="none">
 <path d="M2210 3598 c-19 -13 -40 -39 -48 -59 -12 -31 -11 -41 2 -72 l15 -37 85 0 c76 0 86 2 100 22 26 37 20 84 -16 123 -44 48 -90 55 -138 23z m101 -69 c19 -36 -3 -69 -45 -69 -34 0 -46 13 -46 49 0 43 70 58 91 20z"/>
 <path d="M2713 3606 c-57 -26 -83 -100 -54 -155 11 -19 20 -21 96 -21 75 0 85 2 99 22 27 37 20 84 -16 123 -38 41 -80 51 -125 31z m88 -77 c17 -33 -3 -69 -39 -69 -33 0 -52 16 -52 45 0 29 19 45 52 45 18 0 31 -7 39 -21z"/>
 <path d="M3183 3607 c-6 -11 63 -38 81 -31 8 3 51 -11 96 -30 97 -43 177 -49 210 -16 24 24 25 32 3 59 -17 19 -29 21 -201 23 -101 2 -186 0 -189 -5z"/>
 <path d="M2143 3042 c-12 -2 -34 -17 -48 -34 l-25 -30 2 -197 3 -196 90 0 90 0 3 132 3 131 112 5 c62 3 189 8 282 11 192 6 181 1 235 101 25 46 25 47 6 61 -15 11 -59 14 -185 15 -396 4 -547 4 -568 1z"/>
 <path d="M2077 2464 c-4 -4 -7 -155 -7 -335 l0 -327 25 -30 c14 -17 39 -33 55 -37 33 -7 84 15 100 44 17 32 13 450 -5 481 -19 33 -19 80 1 108 9 13 14 37 12 60 l-3 37 -85 3 c-47 1 -89 0 -93 -4z"/>
 <path d="M2346 2463 c-10 -11 -7 -48 6 -61 9 -9 88 -12 295 -12 163 0 282 -4 281 -9 -2 -5 2 -9 7 -9 6 0 9 4 7 9 -1 5 9 9 22 9 25 0 34 -17 41 -78 2 -18 7 -38 11 -44 4 -6 8 -27 10 -46 2 -18 8 -40 14 -46 5 -7 7 -16 4 -19 -4 -3 -3 -14 1 -24 4 -10 9 -33 11 -51 2 -18 6 -38 10 -44 4 -6 8 -26 10 -45 2 -18 6 -39 10 -45 4 -6 8 -26 10 -45 2 -18 6 -39 10 -45 4 -6 8 -27 10 -46 2 -20 8 -40 13 -45 5 -5 7 -15 5 -22 -7 -16 12 -29 21 -15 3 5 3 15 -1 21 -4 7 -8 27 -10 46 -2 18 -6 39 -10 45 -4 6 -8 26 -10 45 -2 18 -6 39 -10 45 -4 6 -8 26 -10 45 -2 18 -6 39 -10 45 -4 6 -8 27 -10 46 -2 18 -8 40 -14 46 -5 7 -7 16 -4 19 4 3 3 14 -1 24 -4 10 -9 33 -11 51 -2 18 -6 38 -10 44 -4 6 -8 27 -10 46 -2 20 -8 40 -13 45 -5 5 -7 15 -4 22 2 8 0 23 -7 34 -10 21 -17 21 -325 21 -305 0 -315 1 -315 19 0 21 -13 34 -24 24z"/>
 </g>

<g fill="#f6beaa" stroke="none">
 <path d="M2514 2397 c-3 -8 -4 -49 -2 -93 l3 -79 219 -3 c121 -1 223 1 227 5 8 8 -21 149 -35 171 -11 18 -405 17 -412 -1z"/>
 <path d="M2664 1766 c-21 -21 -32 -40 -28 -47 5 -8 12 -4 24 11 9 13 27 31 40 40 15 12 19 19 11 24 -7 4 -26 -7 -47 -28z"/>
 <path d="M2476 1540 c-27 -5 -62 -14 -78 -21 -31 -13 -68 -69 -88 -134 -7 -22 -26 -55 -41 -73 -46 -52 -34 -127 27 -167 22 -14 39 -16 91 -11 59 6 63 5 63 -14 0 -61 82 -199 150 -248 28 -21 31 -22 36 -5 3 10 21 50 40 90 51 106 130 168 259 203 57 15 60 17 57 44 -5 41 -54 133 -98 185 -99 114 -272 177 -418 151z m234 -200 c0 -11 -6 -20 -14 -20 -18 0 -29 16 -21 30 11 18 35 11 35 -10z"/>
 </g>

<g fill="#cd7c3f" stroke="none">
 <path d="M1545 3608 c-3 -7 -4 -267 -3 -578 l3 -565 1290 0 1290 0 0 575 0 575 -65 0 -65 0 -3 -512 -2 -513 -1160 0 -1160 0 -2 513 -3 512 -58 3 c-40 2 -59 -1 -62 -10z"/>
 <path d="M3175 1310 c-4 -6 -3 -16 3 -22 6 -6 12 -6 17 2 4 6 3 16 -3 22 -6 6 -12 6 -17 -2z"/>
 <path d="M3117 1200 c-37 -3 -67 -9 -67 -15 0 -17 125 -18 139 -1 16 20 7 22 -72 16z"/>
 <path d="M2295 1151 c-3 -6 3 -15 14 -21 12 -6 22 -6 26 -1 3 6 -3 15 -14 21 -12 6 -22 6 -26 1z"/>
 <path d="M2639 916 c-1 -3 -2 -9 -3 -13 -1 -5 -7 -18 -14 -30 -7 -13 -8 -24 -3 -28 6 -3 15 4 21 15 6 11 8 20 4 20 -3 0 -1 6 5 14 8 10 9 16 1 21 -5 3 -11 4 -11 1z"/>
 <path d="M2535 751 c-3 -6 3 -15 14 -21 12 -6 22 -6 26 -1 3 6 -3 15 -14 21 -12 6 -22 6 -26 1z"/>
 </g>

<g fill="#2193af" stroke="none">
 <path d="M2295 3611 c-3 -6 3 -15 14 -21 12 -6 22 -6 26 -1 3 6 -3 15 -14 21 -12 6 -22 6 -26 1z"/>
 <path d="M2785 3611 c-3 -6 3 -15 14 -21 12 -6 22 -6 26 -1 3 6 -3 15 -14 21 -12 6 -22 6 -26 1z"/>
 <path d="M3125 3606 c-11 -8 -14 -16 -8 -19 6 -4 18 0 28 7 11 8 14 16 8 19 -6 4 -18 0 -28 -7z"/>
 <path d="M2181 3586 c-7 -8 -8 -17 -3 -20 6 -3 15 1 21 8 7 8 8 17 3 20 -6 3 -15 -1 -21 -8z"/>
 <path d="M2671 3586 c-7 -8 -8 -17 -3 -20 6 -3 15 1 21 8 7 8 8 17 3 20 -6 3 -15 -1 -21 -8z"/>
 <path d="M3089 3576 c-1 -3 -2 -9 -3 -13 -1 -5 -5 -13 -9 -20 -4 -6 -3 -14 3 -18 5 -3 11 -4 11 -1 1 3 2 9 3 14 1 4 5 12 9 19 4 6 3 14 -3 18 -5 3 -11 4 -11 1z"/>
 <path d="M3561 3536 c-7 -8 -8 -17 -3 -20 6 -3 15 1 21 8 7 8 8 17 3 20 -6 3 -15 -1 -21 -8z"/>
 <path d="M2854 3527 c-7 -20 -2 -47 11 -50 14 -3 19 43 6 56 -7 7 -12 6 -17 -6z"/>
 <path d="M2364 3516 c-4 -10 -2 -22 4 -28 8 -8 13 -7 18 6 4 10 2 22 -4 28 -8 8 -13 7 -18 -6z"/>
 <path d="M3465 3510 c-3 -5 8 -16 24 -25 18 -9 32 -11 36 -5 3 5 -8 16 -24 25 -18 9 -32 11 -36 5z"/>
 <path d="M3555 3471 c-3 -6 3 -15 14 -21 12 -6 22 -6 26 -1 3 6 -3 15 -14 21 -12 6 -22 6 -26 1z"/>
 <path d="M2355 3450 c-3 -5 0 -12 7 -15 25 -10 308 0 311 10 3 14 -309 19 -318 5z"/>
 <path d="M3350 3430 c-7 -13 -7 -21 0 -25 6 -3 13 1 16 9 5 12 11 13 24 6 20 -11 39 4 20 15 -24 15 -50 13 -60 -5z"/>
 <path d="M3629 3426 c-5 -23 -2 -46 5 -48 12 -4 15 41 4 48 -4 3 -8 3 -9 0z"/>
 <path d="M3445 3411 c-3 -6 3 -15 14 -21 12 -6 22 -6 26 -1 3 6 -3 15 -14 21 -12 6 -22 6 -26 1z"/>
 <path d="M3315 3369 c-12 -22 -14 -34 -6 -42 7 -7 13 -2 21 18 6 15 13 31 15 36 3 4 1 10 -4 14 -6 3 -17 -9 -26 -26z"/>
 <path d="M2834 3380 c-5 -5 -71 -11 -147 -12 -181 -4 -183 -22 -3 -26 118 -2 136 0 156 16 13 11 19 21 13 25 -5 3 -14 2 -19 -3z"/>
 <path d="M3100 3365 c-6 -15 -13 -31 -15 -36 -3 -4 -1 -10 4 -14 15 -9 45 55 32 68 -7 7 -13 2 -21 -18z"/>
 <path d="M3515 3380 c-3 -5 8 -16 24 -25 18 -9 32 -11 36 -5 3 5 -8 16 -24 25 -18 9 -32 11 -36 5z"/>
 <path d="M2164 3368 c-3 -4 5 -12 16 -18 25 -14 285 -9 285 5 0 11 -294 24 -301 13z"/>
 <path d="M3060 3291 c-6 -12 -6 -22 -1 -26 6 -3 15 3 21 14 6 12 6 22 1 26 -6 3 -15 -3 -21 -14z"/>
 <path d="M4694 3277 c-3 -8 -4 -45 -2 -83 l3 -69 160 0 160 0 0 80 0 80 -158 3 c-126 2 -158 0 -163 -11z"/>
 <path d="M3030 3241 c-6 -12 -6 -22 -1 -26 6 -3 15 3 21 14 6 12 6 22 1 26 -6 3 -15 -3 -21 -14z"/>
 <path d="M3336 3221 c-4 -5 -2 -12 3 -16 6 -3 8 -12 5 -19 -3 -8 0 -17 5 -21 6 -3 9 -10 6 -15 -3 -5 -1 -11 4 -14 5 -4 12 -2 15 3 4 5 2 12 -3 16 -6 3 -8 12 -5 19 3 8 0 17 -5 21 -6 3 -9 10 -6 15 3 5 1 11 -4 14 -5 4 -12 2 -15 -3z"/>
 <path d="M2990 3171 c-6 -12 -6 -22 -1 -26 6 -3 15 3 21 14 6 12 6 22 1 26 -6 3 -15 -3 -21 -14z"/>
 <path d="M2960 3121 c-6 -12 -6 -22 -1 -26 6 -3 15 3 21 14 6 12 6 22 1 26 -6 3 -15 -3 -21 -14z"/>
 <path d="M3161 3105 c-28 -37 -16 -52 17 -20 17 18 22 29 15 36 -7 7 -17 2 -32 -16z"/>
 <path d="M2930 3071 c-6 -12 -6 -22 -1 -26 6 -3 15 3 21 14 6 12 6 22 1 26 -6 3 -15 -3 -21 -14z"/>
 <path d="M3120 3041 c-6 -12 -6 -22 -1 -26 6 -3 15 3 21 14 6 12 6 22 1 26 -6 3 -15 -3 -21 -14z"/>
 <path d="M2091 3016 c-7 -8 -8 -17 -3 -20 6 -3 15 1 21 8 7 8 8 17 3 20 -6 3 -15 -1 -21 -8z"/>
 <path d="M3396 2991 c-4 -5 -2 -12 3 -16 6 -3 8 -12 5 -19 -3 -8 0 -17 5 -21 6 -3 9 -10 6 -15 -3 -5 -1 -11 4 -14 5 -4 12 -2 15 3 4 5 2 12 -3 16 -6 3 -8 12 -5 19 3 8 0 17 -5 21 -6 3 -9 10 -6 15 3 5 1 11 -4 14 -5 4 -12 2 -15 -3z"/>
 <path d="M3080 2971 c-6 -12 -6 -22 -1 -26 6 -3 15 3 21 14 6 12 6 22 1 26 -6 3 -15 -3 -21 -14z"/>
 <path d="M2065 2959 c-10 -26 -1 -384 10 -382 14 4 19 373 6 386 -7 7 -12 5 -16 -4z"/>
 <path d="M3050 2920 c-6 -11 -8 -20 -4 -20 3 0 1 -7 -6 -15 -18 -22 2 -26 116 -23 76 2 99 6 99 17 0 11 -20 13 -98 12 -96 -2 -98 -2 -88 18 7 12 7 22 2 26 -6 3 -15 -4 -21 -15z"/>
 <path d="M2257 2864 c-16 -16 10 -24 78 -24 45 0 77 -5 81 -12 4 -6 3 -8 -3 -5 -6 4 -16 0 -22 -7 -7 -8 -8 -17 -3 -20 11 -7 75 58 66 67 -9 9 -188 9 -197 1z"/>
 <path d="M2369 2776 c-1 -3 -2 -9 -3 -13 -1 -5 -5 -13 -9 -20 -4 -6 -3 -14 3 -18 5 -3 11 -4 11 -1 1 3 2 9 3 14 1 4 5 12 9 19 4 6 3 14 -3 18 -5 3 -11 4 -11 1z"/>
 <path d="M3430 2751 c-6 -12 -6 -22 -1 -26 6 -3 15 3 21 14 6 12 6 22 1 26 -6 3 -15 -3 -21 -14z"/>
 <path d="M3396 2711 c-4 -6 -13 -8 -20 -5 -17 7 -30 -12 -16 -21 6 -4 16 -2 23 3 7 6 15 11 20 11 8 1 11 11 4 17 -3 3 -8 1 -11 -5z"/>
 <path d="M2065 2459 c-10 -27 -1 -584 10 -582 14 4 19 573 5 587 -6 6 -11 4 -15 -5z"/>
 <path d="M4694 2447 c-3 -8 -4 -45 -2 -83 l3 -69 160 0 160 0 0 80 0 80 -158 3 c-126 2 -158 0 -163 -11z"/>
 <path d="M2086 1782 c-3 -5 3 -17 13 -26 11 -10 22 -13 25 -8 3 5 -3 17 -13 26 -11 10 -22 13 -25 8z"/>
 <path d="M1395 1728 c-3 -7 -4 -146 -3 -308 l3 -295 190 0 190 0 3 117 3 117 117 3 117 3 0 185 0 185 -150 0 c-148 0 -150 0 -153 -22 -2 -17 -10 -23 -27 -23 -17 0 -25 6 -27 23 -2 14 -10 22 -23 22 -13 0 -21 -8 -23 -22 -2 -17 -10 -23 -27 -23 -17 0 -25 6 -27 23 -2 14 -10 22 -23 22 -13 0 -21 -8 -23 -22 -2 -17 -10 -23 -27 -23 -17 0 -25 6 -27 23 -2 16 -11 23 -31 25 -16 2 -29 -2 -32 -10z m455 -43 c0 -8 -4 -15 -10 -15 -5 0 -10 7 -10 15 0 8 5 15 10 15 6 0 10 -7 10 -15z m120 0 c0 -8 -7 -15 -15 -15 -8 0 -15 7 -15 15 0 8 7 15 15 15 8 0 15 -7 15 -15z m-360 -65 c0 -25 -4 -30 -25 -30 -21 0 -25 5 -25 30 0 25 4 30 25 30 21 0 25 -5 25 -30z m240 5 c0 -8 -4 -15 -10 -15 -5 0 -10 7 -10 15 0 8 5 15 10 15 6 0 10 -7 10 -15z m60 0 c0 -8 -4 -15 -10 -15 -5 0 -10 7 -10 15 0 8 5 15 10 15 6 0 10 -7 10 -15z m60 -175 c0 -5 -7 -10 -15 -10 -8 0 -15 5 -15 10 0 6 7 10 15 10 8 0 15 -4 15 -10z m-360 -25 c0 -20 -5 -25 -25 -25 -20 0 -25 5 -25 25 0 20 5 25 25 25 20 0 25 -5 25 -25z m100 0 c0 -20 -5 -25 -25 -25 -20 0 -25 5 -25 25 0 20 5 25 25 25 20 0 25 -5 25 -25z m-200 -95 c0 -25 -4 -30 -25 -30 -21 0 -25 5 -25 30 0 25 4 30 25 30 21 0 25 -5 25 -30z m200 0 c0 -25 -4 -30 -25 -30 -21 0 -25 5 -25 30 0 25 4 30 25 30 21 0 25 -5 25 -30z m-200 -100 c0 -25 -4 -30 -25 -30 -21 0 -25 5 -25 30 0 25 4 30 25 30 21 0 25 -5 25 -30z m100 0 c0 -25 -4 -30 -25 -30 -21 0 -25 5 -25 30 0 25 4 30 25 30 21 0 25 -5 25 -30z"/>
 <path d="M3065 1730 c-3 -6 0 -12 7 -15 26 -10 893 0 891 10 -4 14 -889 19 -898 5z"/>
 <path d="M4694 1617 c-3 -8 -4 -45 -2 -83 l3 -69 160 0 160 0 0 80 0 80 -158 3 c-126 2 -158 0 -163 -11z"/>
 <path d="M2306 1031 c-4 -5 -2 -12 4 -16 6 -4 8 -10 5 -15 -3 -5 -1 -11 4 -14 5 -4 12 -2 15 3 4 5 2 12 -4 16 -6 4 -8 10 -5 15 3 5 1 11 -4 14 -5 4 -12 2 -15 -3z"/>
 <path d="M4395 1018 c-7 -22 -35 -253 -41 -338 -8 -104 -3 -110 90 -111 68 0 70 -1 37 -13 -79 -28 -145 -113 -153 -196 l-3 -35 48 2 c56 2 121 36 155 82 12 16 22 34 22 38 0 4 4 14 9 22 8 12 15 8 36 -17 31 -37 56 -52 102 -63 40 -8 47 1 38 47 -9 49 -68 111 -113 121 -30 7 -20 9 58 13 l95 5 -3 105 c-1 58 -10 159 -20 225 l-17 120 -168 3 c-129 2 -168 0 -172 -10z"/>
 <path d="M3270 851 c-6 -12 -6 -22 -1 -26 6 -3 15 3 21 14 6 12 6 22 1 26 -6 3 -15 -3 -21 -14z"/>
 <path d="M5024 336 c-3 -7 -4 -31 -2 -52 l3 -39 90 0 90 0 0 50 0 50 -88 3 c-69 2 -89 0 -93 -12z"/>
 <path d="M5294 336 c-3 -7 -4 -31 -2 -52 l3 -39 90 0 90 0 0 50 0 50 -88 3 c-69 2 -89 0 -93 -12z"/>
 <path d="M5564 336 c-3 -8 -4 -31 -2 -52 l3 -39 83 -3 c53 -2 89 1 98 9 17 14 18 71 2 87 -18 18 -177 16 -184 -2z"/>
 </g>

<g fill="#1c203d" stroke="none">
 <path d="M2232 3563 c-16 -6 -34 -40 -24 -47 4 -2 18 6 30 19 22 23 19 37 -6 28z"/>
 <path d="M2287 3563 c-4 -6 0 -16 8 -23 19 -16 19 -49 -1 -71 -9 -10 -11 -19 -5 -23 11 -7 51 40 51 60 0 20 -46 69 -53 57z"/>
 <path d="M2722 3563 c-16 -6 -34 -40 -24 -47 4 -2 18 6 30 19 22 23 19 37 -6 28z"/>
 <path d="M2777 3563 c-4 -6 0 -16 8 -23 19 -16 19 -49 -1 -71 -9 -10 -11 -19 -5 -23 11 -7 51 40 51 60 0 20 -46 69 -53 57z"/>
 <path d="M2206 3491 c-9 -14 31 -58 43 -46 7 7 2 17 -14 33 -13 12 -26 18 -29 13z"/>
 <path d="M2697 3493 c-9 -8 10 -40 27 -46 9 -4 17 -3 20 1 6 10 -39 53 -47 45z"/>
 <path d="M2354 2456 c-3 -8 -4 -23 -2 -33 3 -17 22 -18 285 -21 257 -2 282 -4 287 -20 2 -9 35 -156 72 -327 37 -170 71 -315 77 -322 7 -9 116 -12 447 -13 241 0 441 3 443 7 2 5 -27 145 -64 313 -38 168 -72 332 -76 365 l-8 60 -728 3 c-628 2 -728 0 -733 -12z"/>
 <path d="M2836 1541 c-10 -11 -13 -22 -8 -25 5 -3 15 1 22 9 9 11 16 12 25 5 9 -8 15 -8 20 0 3 5 4 11 1 11 -3 1 -9 2 -13 3 -5 1 -13 5 -19 8 -6 4 -19 -1 -28 -11z"/>
 <path d="M2955 1550 c-3 -6 -10 -8 -15 -5 -5 3 -11 1 -14 -4 -4 -5 -2 -12 3 -15 5 -4 13 -2 16 4 5 8 11 8 20 0 8 -7 16 -7 19 -2 3 6 -1 15 -8 21 -10 8 -16 9 -21 1z"/>
 <path d="M2965 1481 c-3 -6 3 -15 14 -21 12 -6 22 -6 26 -1 3 6 -3 15 -14 21 -12 6 -22 6 -26 1z"/>
 <path d="M2705 1350 c-4 -6 -3 -16 3 -22 6 -6 12 -6 17 2 4 6 3 16 -3 22 -6 6 -12 6 -17 -2z"/>
 <path d="M3085 1350 c-4 -6 -3 -16 3 -22 6 -6 12 -6 17 2 4 6 3 16 -3 22 -6 6 -12 6 -17 -2z"/>
 </g>

<g fill="#8fd1ed" stroke="none">
 <path d="M1535 3609 c-10 -27 -1 -1144 10 -1144 14 0 19 1135 5 1149 -6 6 -11 4 -15 -5z"/>
 <path d="M4285 3598 c-3 -7 -4 -589 -2 -1293 l2 -1280 342 -3 343 -2 2 -423 3 -422 410 0 410 0 3 422 2 422 28 3 27 3 0 1290 0 1290 -783 3 c-621 2 -784 0 -787 -10z m715 -393 l0 -65 -145 0 -145 0 0 65 0 65 145 0 145 0 0 -65z m0 -830 l0 -65 -145 0 -145 0 0 65 0 65 145 0 145 0 0 -65z m0 -830 l0 -65 -145 0 -145 0 0 65 0 65 145 0 145 0 0 -65z m190 -1250 l0 -35 -75 0 -75 0 0 35 0 35 75 0 75 0 0 -35z m270 0 l0 -35 -75 0 -75 0 0 35 0 35 75 0 75 0 0 -35z m280 0 l0 -35 -80 0 -80 0 0 35 0 35 80 0 80 0 0 -35z"/>
 <path d="M2160 3561 c-6 -12 -6 -22 -1 -26 6 -3 15 3 21 14 6 12 6 22 1 26 -6 3 -15 -3 -21 -14z"/>
 <path d="M2159 3478 c0 -2 -2 -16 -3 -31 -2 -34 7 -42 24 -23 8 11 9 20 0 35 -9 18 -18 26 -21 19z"/>
 <path d="M2115 3036 c-11 -8 -14 -16 -8 -19 6 -4 18 0 28 7 11 8 14 16 8 19 -6 4 -18 0 -28 -7z"/>
 <path d="M2865 3041 c-6 -11 22 -28 43 -27 13 1 17 15 5 17 -5 1 -16 5 -25 10 -10 6 -19 5 -23 0z"/>
 <path d="M2365 2779 c-12 -22 -14 -34 -6 -42 7 -7 13 -2 21 18 6 15 13 31 15 36 3 4 1 10 -4 14 -6 3 -17 -9 -26 -26z"/>
 <path d="M2344 2707 c-7 -20 -2 -47 11 -50 14 -3 19 43 6 56 -7 7 -12 6 -17 -6z"/>
 <path d="M2696 2691 c-4 -5 -2 -12 3 -15 5 -3 7 -15 4 -25 -3 -10 0 -22 6 -25 5 -4 8 -13 5 -20 -13 -35 11 -36 657 -34 416 2 633 6 632 13 -2 6 -222 11 -630 13 -425 1 -630 6 -639 13 -7 6 -10 17 -7 25 3 8 -1 22 -8 31 -8 9 -12 18 -11 20 2 3 1 7 -1 9 -3 3 -8 1 -11 -5z"/>
 <path d="M2353 2616 c-5 -9 -27 -16 -53 -18 -64 -4 -51 -23 17 -23 50 0 56 2 59 22 4 26 -11 39 -23 19z"/>
 <path d="M1665 2590 c-3 -6 0 -12 7 -15 26 -10 398 0 398 10 0 14 -396 19 -405 5z"/>
 <path d="M2262 2404 c-32 -22 -18 -35 18 -17 17 8 28 19 25 24 -8 13 -17 11 -43 -7z"/>
 <path d="M2218 2333 c-7 -14 -3 -33 6 -33 12 -1 17 28 6 35 -5 3 -10 2 -12 -2z"/>
 <path d="M2790 2225 c-14 -16 -10 -18 38 -15 17 1 32 -2 32 -7 -1 -17 -38 -78 -47 -75 -13 3 -9 -31 4 -35 6 -2 19 11 29 29 9 18 25 43 36 55 32 35 20 58 -33 61 -32 2 -50 -2 -59 -13z"/>
 <path d="M2257 2203 c-2 -4 24 -75 59 -158 35 -82 64 -151 64 -152 0 -1 -28 -3 -62 -5 l-63 -3 -6 -49 c-6 -57 -34 -86 -83 -86 -51 0 -69 20 -76 81 l-5 54 -480 0 -480 0 0 -650 0 -650 955 0 955 0 0 97 c0 53 2 96 5 95 3 -1 6 1 8 6 3 11 -10 6 -53 -21 -125 -80 -343 -83 -458 -7 -17 11 -27 13 -32 6 -4 -7 -74 -11 -196 -11 l-189 0 0 159 c0 150 1 159 20 164 18 5 20 14 20 87 0 73 -2 82 -20 87 -19 5 -20 14 -20 239 l0 234 173 0 c191 -1 300 -20 282 -50 -9 -15 11 -20 29 -7 16 12 14 15 -21 40 -22 15 -49 27 -60 27 -34 0 -69 40 -96 110 -48 122 -148 355 -156 363 -5 5 -11 5 -14 0z m-875 -773 c2 -185 7 -290 13 -290 6 0 11 105 13 290 l2 290 205 0 c159 0 204 -3 203 -12 -2 -8 7 -13 22 -13 15 0 24 5 22 13 -1 8 12 12 40 12 33 0 39 -3 30 -12 -15 -15 -16 -45 -2 -53 6 -3 13 2 17 12 3 10 13 22 20 26 7 5 11 12 8 18 -4 5 10 9 29 9 l36 0 0 -234 c0 -225 -1 -234 -20 -239 -18 -5 -20 -14 -20 -87 0 -73 2 -82 20 -87 19 -5 20 -14 20 -164 l0 -159 -385 0 -385 0 0 129 0 130 28 3 27 3 0 145 0 145 -27 3 -28 3 0 205 0 204 55 0 55 0 2 -290z"/>
 <path d="M1545 1590 c-3 -5 0 -13 9 -16 21 -8 71 -1 71 11 0 14 -72 19 -80 5z"/>
 <path d="M1924 1466 c-8 -21 3 -49 16 -41 5 3 10 15 10 25 0 25 -18 36 -26 16z"/>
 <path d="M1445 1370 c-3 -5 0 -13 9 -16 21 -8 71 -1 71 11 0 14 -72 19 -80 5z"/>
 <path d="M1645 1370 c-3 -5 0 -13 9 -16 21 -8 71 -1 71 11 0 14 -72 19 -80 5z"/>
 <path d="M1445 1200 c-3 -5 0 -13 9 -16 21 -8 71 -1 71 11 0 14 -72 19 -80 5z"/>
 <path d="M1545 1200 c-3 -5 0 -13 9 -16 21 -8 71 -1 71 11 0 14 -72 19 -80 5z"/>
 <path d="M2795 2180 c-4 -6 -3 -16 3 -22 6 -6 12 -6 17 2 4 6 3 16 -3 22 -6 6 -12 6 -17 -2z"/>
 <path d="M2884 2166 c-4 -10 -2 -22 4 -28 8 -8 13 -7 18 6 4 10 2 22 -4 28 -8 8 -13 7 -18 -6z"/>
 <path d="M2895 2110 c-4 -6 -3 -16 3 -22 6 -6 12 -6 17 2 4 6 3 16 -3 22 -6 6 -12 6 -17 -2z"/>
 <path d="M2985 2071 c-3 -6 -4 -11 0 -11 5 0 -26 -63 -54 -110 -5 -8 -17 -34 -27 -58 -11 -28 -23 -41 -33 -40 -11 2 -15 -4 -14 -22 1 -14 -4 -41 -11 -60 -14 -42 -15 -85 -1 -85 6 0 10 8 9 18 0 10 7 17 18 17 13 0 18 -8 18 -30 0 -25 7 -33 49 -54 26 -14 62 -37 79 -51 17 -14 33 -21 36 -16 4 5 2 12 -4 16 -11 7 -14 206 -2 203 4 -2 7 2 7 7 0 6 -4 9 -8 7 -5 -1 -7 19 -6 45 l3 47 -52 -3 c-29 -1 -52 0 -52 4 0 3 15 36 34 74 32 63 39 92 24 106 -3 4 -9 2 -13 -4z"/>
 <path d="M2904 2056 c-4 -9 -1 -22 5 -30 6 -7 8 -16 5 -19 -4 -3 -4 -14 0 -23 5 -13 10 -14 18 -6 6 6 7 18 3 29 -5 10 -7 25 -6 35 3 22 -18 33 -25 14z"/>
 <path d="M2835 1970 c-4 -6 -3 -16 3 -22 6 -6 12 -6 17 2 4 6 3 16 -3 22 -6 6 -12 6 -17 -2z"/>
 <path d="M2411 1566 c-13 -13 -18 -26 -13 -30 5 -3 19 5 31 18 13 13 18 26 13 30 -5 3 -19 -5 -31 -18z"/>
 <path d="M3066 1552 c-3 -5 3 -17 13 -26 11 -10 22 -13 25 -8 3 5 -3 17 -13 26 -11 10 -22 13 -25 8z"/>
 <path d="M2346 1477 c-14 -23 -32 -63 -41 -87 -9 -24 -25 -54 -36 -66 -11 -12 -21 -28 -23 -35 -1 -8 -5 -20 -10 -27 -10 -16 -1 -56 21 -88 19 -29 38 -21 21 9 -6 12 -14 36 -18 54 -7 27 -3 38 25 70 17 21 38 56 45 78 7 22 23 59 36 82 14 23 20 44 15 48 -6 3 -21 -14 -35 -38z"/>
 <path d="M3127 1474 c-9 -10 22 -66 33 -59 6 4 4 18 -5 36 -17 31 -18 32 -28 23z"/>
 <path d="M3236 1191 c-4 -5 -2 -12 4 -16 5 -3 10 -3 10 1 0 3 6 1 14 -5 10 -8 16 -9 21 -1 3 5 4 11 1 11 -3 1 -9 2 -13 3 -5 1 -13 5 -20 9 -6 4 -14 3 -17 -2z"/>
 <path d="M3296 1162 c-3 -5 3 -17 13 -26 11 -10 22 -13 25 -8 3 5 -3 17 -13 26 -11 10 -22 13 -25 8z"/>
 <path d="M2327 974 c-9 -10 22 -66 33 -59 6 4 4 18 -5 36 -17 31 -18 32 -28 23z"/>
 <path d="M3277 942 c-11 -12 -13 -22 -6 -35 14 -25 32 -11 18 15 -7 13 -7 18 -1 14 6 -3 13 -2 16 3 11 18 -11 21 -27 3z"/>
 <path d="M2386 872 c-3 -6 1 -15 8 -21 8 -7 17 -8 20 -3 3 6 -1 15 -8 21 -8 7 -17 8 -20 3z"/>
 <path d="M2466 792 c-3 -6 1 -15 8 -21 8 -7 17 -8 20 -3 3 6 -1 15 -8 21 -8 7 -17 8 -20 3z"/>
 <path d="M4556 532 c-3 -6 1 -15 8 -21 8 -7 17 -8 20 -3 3 6 -1 15 -8 21 -8 7 -17 8 -20 3z"/>
 <path d="M4676 522 c-3 -6 1 -15 8 -21 8 -7 17 -8 20 -3 3 6 -1 15 -8 21 -8 7 -17 8 -20 3z"/>
 </g>

<g fill="#4dc1eb" stroke="none">
 <path d="M0 1900 l0 -1900 3495 0 3495 0 0 1900 0 1900 -3495 0 -3495 0 0 -1900z m1662 1193 l3 -508 205 0 205 0 5 195 c4 174 11 223 33 242 1 1 81 4 177 7 l175 6 0 160 0 160 -125 2 c-181 4 -167 -4 -168 104 -1 83 1 93 23 115 28 28 98 33 132 9 30 -21 46 -75 33 -109 -7 -20 -7 -28 3 -32 7 -2 78 -3 157 -2 l145 3 -3 42 c-4 45 17 97 43 107 9 3 34 6 54 6 73 0 118 -67 90 -135 -6 -17 -11 -44 -10 -62 3 -40 -4 -42 -169 -46 l-125 -2 0 -160 0 -160 170 -5 c94 -3 175 -8 181 -12 16 -11 29 8 134 187 l93 159 -13 56 c-22 88 -19 139 9 161 22 18 40 19 235 17 l211 -3 0 -35 c0 -34 -2 -35 -40 -38 -67 -5 -63 -19 19 -56 78 -36 97 -56 79 -85 -20 -32 -31 -30 -196 43 l-57 26 -30 -48 c-16 -26 -30 -54 -30 -63 0 -8 29 -128 65 -265 36 -137 65 -265 65 -285 0 -21 -8 -47 -19 -60 l-19 -24 -349 -5 -348 -5 3 -39 c7 -83 -56 -76 660 -74 l637 3 3 508 2 507 50 0 50 0 0 -565 0 -565 -150 0 c-125 0 -152 -3 -156 -15 -4 -8 28 -170 70 -359 42 -189 76 -349 76 -355 0 -8 -125 -11 -435 -11 l-434 0 -10 38 c-5 20 -19 84 -31 142 -31 147 -39 152 -89 53 -22 -45 -37 -83 -34 -87 4 -3 28 -6 55 -6 l48 0 0 -136 0 -136 45 -50 c67 -75 145 -252 145 -330 0 -22 6 -31 28 -38 52 -20 74 -34 88 -62 28 -55 9 -144 -36 -168 -16 -9 -19 -18 -14 -53 9 -70 -7 -81 -117 -86 -133 -5 -139 -10 -139 -122 l0 -89 -940 0 -940 0 0 635 0 635 468 2 467 3 0 295 0 295 -262 3 -263 2 0 565 0 565 55 0 55 0 2 -507z m3748 107 l0 -390 -555 0 -555 0 0 390 0 390 555 0 555 0 0 -390z m430 0 l0 -390 -200 0 -200 0 0 390 0 390 200 0 200 0 0 -390z m-430 -825 l0 -395 -555 0 -555 0 0 395 0 395 555 0 555 0 0 -395z m430 0 l0 -395 -200 0 -200 0 0 395 0 395 200 0 200 0 0 -395z m-430 -885 l-1 -450 -554 0 -555 0 0 450 0 450 555 0 555 0 0 -450z m430 0 l0 -450 -200 0 -200 0 0 450 0 450 200 0 200 0 0 -450z m-1120 -485 c0 -8 30 -228 36 -262 l5 -33 -195 0 -195 0 4 28 c7 38 35 251 35 262 0 6 62 10 155 10 85 0 155 -2 155 -5z m790 -405 l0 -410 -260 0 -260 0 0 410 0 410 260 0 260 0 0 -410z m270 0 l0 -410 -120 0 -120 0 0 410 0 410 120 0 120 0 0 -410z m-1020 30 l0 -40 -195 0 -195 0 0 40 0 40 195 0 195 0 0 -40z m-102 -105 c31 -19 62 -71 62 -105 0 -16 -4 -17 -31 -10 -48 14 -77 37 -97 77 -9 20 -21 35 -26 35 -6 0 -15 -18 -21 -39 -6 -21 -19 -50 -29 -65 -21 -32 -108 -78 -148 -78 -26 0 -27 2 -21 33 14 77 63 138 130 163 48 18 141 12 181 -11z"/>
 <path d="M3147 3073 c-65 -105 -107 -184 -102 -193 9 -15 195 -13 200 3 7 18 -50 220 -63 225 -6 2 -22 -14 -35 -35z"/>
 <path d="M2254 2847 c-2 -7 -3 -69 -2 -138 l3 -124 60 0 c48 0 59 3 56 15 -2 8 -4 44 -4 80 -1 68 14 110 52 144 11 10 18 23 15 27 -9 15 -174 11 -180 -4z"/>
 <path d="M2257 2464 c-9 -10 -9 -62 1 -67 4 -3 27 -2 52 2 42 6 45 8 45 36 0 28 -2 30 -45 33 -25 2 -49 0 -53 -4z"/>
 <path d="M2795 2221 c-8 -14 5 -88 20 -108 11 -15 16 -10 43 44 17 33 28 63 25 67 -10 10 -81 7 -88 -3z"/>
 <path d="M2255 2189 c-3 -8 -4 -82 -3 -164 l3 -150 64 -3 c35 -2 68 1 74 7 6 6 -12 61 -53 158 -66 157 -76 175 -85 152z"/>
 <path d="M1255 1728 c-3 -8 -4 -108 -3 -223 l3 -210 28 -3 27 -3 0 -129 0 -129 -27 -3 -28 -3 0 -145 0 -145 400 0 400 0 3 173 c2 167 2 174 -18 179 -18 5 -20 13 -20 73 0 59 2 68 20 73 20 5 20 12 18 254 l-3 248 -25 0 -25 0 -3 -177 -2 -178 -105 0 -105 0 -2 178 c-2 109 -7 177 -13 177 -6 0 -11 -108 -13 -297 l-2 -298 -180 0 -180 0 -2 298 -3 297 -68 3 c-49 2 -69 -1 -72 -10z"/>
 <path d="M1444 1726 c-13 -35 0 -51 41 -51 38 0 40 2 40 30 0 27 -3 30 -38 33 -26 2 -39 -1 -43 -12z"/>
 <path d="M1546 1728 c-3 -7 -4 -42 -3 -78 l2 -65 40 0 40 0 0 75 0 75 -38 3 c-24 2 -39 -1 -41 -10z"/>
 <path d="M1644 1726 c-13 -35 0 -51 41 -51 38 0 40 2 40 30 0 27 -3 30 -38 33 -26 2 -39 -1 -43 -12z"/>
 <path d="M2107 1734 c-4 -4 -7 -117 -7 -252 0 -235 1 -244 20 -249 18 -5 20 -14 20 -73 0 -60 -2 -68 -20 -73 -20 -5 -20 -12 -18 -179 l3 -173 209 -3 c115 -1 214 2 219 7 5 5 -6 17 -26 30 -101 62 -181 197 -202 341 -4 25 -17 55 -28 68 -29 32 -29 92 1 129 12 15 27 39 33 53 75 167 124 225 234 279 l67 32 -28 26 c-16 15 -42 28 -59 30 -61 8 -411 14 -418 7z"/>
 <path d="M2836 1731 c-10 -16 12 -59 34 -66 29 -9 42 6 38 41 -2 24 -8 29 -35 32 -17 2 -34 -1 -37 -7z"/>
 <path d="M1815 1698 c-2 -7 -3 -33 -2 -58 l2 -45 55 0 c54 0 55 0 55 30 0 27 -3 30 -30 29 -27 -1 -31 2 -30 25 0 19 -6 27 -23 29 -12 2 -24 -3 -27 -10z"/>
 <path d="M1934 1696 c-10 -26 4 -48 28 -44 17 2 23 10 23 28 0 18 -6 26 -23 28 -13 2 -25 -3 -28 -12z"/>
 <path d="M1875 1530 c-4 -6 -4 -22 -1 -35 5 -21 3 -23 -27 -21 -28 1 -32 -2 -32 -24 0 -25 1 -25 85 -25 84 0 85 0 85 25 0 22 -4 25 -31 24 -29 -2 -32 1 -30 30 1 25 -3 32 -21 34 -11 2 -24 -2 -28 -8z"/>
 <path d="M1544 1456 c-3 -8 -4 -27 -2 -43 3 -26 7 -28 43 -28 l40 0 0 40 c0 39 -1 40 -38 43 -26 2 -39 -1 -43 -12z"/>
 <path d="M1644 1456 c-3 -8 -4 -27 -2 -43 3 -26 7 -28 43 -28 l40 0 0 40 c0 39 -1 40 -38 43 -26 2 -39 -1 -43 -12z"/>
 <path d="M1445 1358 c-2 -7 -3 -47 -2 -88 l2 -75 40 0 40 0 0 85 0 85 -38 3 c-24 2 -39 -1 -42 -10z"/>
 <path d="M1644 1356 c-3 -8 -4 -27 -2 -43 3 -26 7 -28 43 -28 l40 0 0 40 c0 39 -1 40 -38 43 -26 2 -39 -1 -43 -12z"/>
 <path d="M1544 1266 c-3 -8 -4 -27 -2 -43 3 -26 7 -28 43 -28 l40 0 0 40 c0 39 -1 40 -38 43 -26 2 -39 -1 -43 -12z"/>
 </g>

</svg>