<!DOCTYPE svg PUBLIC "-//W3C//DTD SVG 20010904//EN" "http://www.w3.org/TR/2001/REC-SVG-20010904/DTD/svg10.dtd">
<svg version="1.0" xmlns="http://www.w3.org/2000/svg" width="700px" height="600px" viewBox="0 0 7000 6000" preserveAspectRatio="xMidYMid meet"><g fill="#2c3156" stroke="none">
 <path d="M2297 4853 c-4 -6 0 -16 8 -23 19 -16 19 -49 -1 -71 -9 -10 -11 -19 -5 -23 11 -7 51 40 51 60 0 20 -46 69 -53 57z"/>
 <path d="M2787 4853 c-4 -6 0 -16 8 -23 19 -16 19 -49 -1 -71 -9 -10 -11 -19 -5 -23 11 -7 51 40 51 60 0 20 -46 69 -53 57z"/>
 <path d="M2710 4831 c-6 -12 -6 -22 -1 -26 6 -3 15 3 21 14 6 12 6 22 1 26 -6 3 -15 -3 -21 -14z"/>
 <path d="M2707 4783 c-4 -6 0 -18 7 -28 8 -11 16 -14 19 -8 4 6 0 18 -7 28 -8 11 -16 14 -19 8z"/>
 <path d="M2226 4762 c-3 -6 1 -15 8 -21 8 -7 17 -8 20 -3 3 6 -1 15 -8 21 -8 7 -17 8 -20 3z"/>
 <path d="M2364 3746 c-3 -8 -4 -23 -2 -33 3 -17 22 -18 285 -21 l282 -2 11 -53 c6 -28 39 -180 73 -337 l63 -285 35 -3 c43 -4 66 17 50 46 -6 11 -12 34 -15 53 -2 19 -9 48 -14 66 -6 17 -8 34 -5 36 2 3 0 14 -6 25 -6 10 -13 37 -16 58 -8 56 -12 79 -15 79 -1 0 -3 9 -5 20 -9 52 -14 72 -23 102 -6 17 -8 34 -5 36 2 3 0 14 -6 25 -6 10 -12 34 -14 53 -3 19 -8 42 -12 51 -7 17 18 18 396 20 261 2 404 7 404 13 0 6 -142 11 -402 13 l-402 2 -3 23 -3 22 -323 3 c-275 2 -323 0 -328 -12z"/>
 </g>

<g fill="#db282e" stroke="none">
 <path d="M3189 2633 c-1 -5 0 -41 1 -80 l2 -73 -61 0 c-67 0 -83 -12 -48 -35 27 -18 47 -55 47 -90 0 -32 -45 -83 -82 -93 -26 -6 -34 -17 -53 -70 -12 -34 -41 -90 -64 -124 -51 -76 -43 -93 26 -59 27 12 69 36 94 52 41 26 55 29 125 29 105 0 126 14 123 79 -2 40 2 50 28 76 74 74 39 212 -59 232 -23 5 -28 12 -34 51 -10 65 -41 136 -45 105z"/>
 </g>

<g fill="#5f5e5f" stroke="none">
 <path d="M3206 4901 c-4 -5 0 -13 8 -18 7 -4 16 -17 18 -28 2 -13 10 -19 23 -17 87 15 83 16 105 -19 14 -23 18 -43 14 -62 -5 -26 -2 -29 83 -69 64 -30 101 -42 138 -42 l50 -1 3 43 3 43 -58 25 c-32 14 -94 43 -138 63 -44 21 -89 42 -100 47 -14 6 17 10 95 14 67 3 115 9 115 15 0 13 -351 19 -359 6z"/>
 <path d="M3579 4873 c-1 -4 -1 -12 0 -17 1 -5 -5 -16 -14 -26 -9 -10 -12 -21 -7 -24 13 -8 35 20 37 45 2 19 -14 39 -16 22z"/>
 <path d="M2168 4715 c-8 -19 -8 -31 0 -50 12 -25 12 -25 157 -25 l144 0 3 -157 3 -158 45 0 45 0 3 157 3 157 141 3 c157 3 172 10 152 65 l-9 28 -338 3 -337 2 -12 -25z"/>
 <path d="M2085 3880 c-3 -5 0 -13 8 -16 23 -9 177 0 180 11 3 14 -179 19 -188 5z"/>
 <path d="M1555 3760 c-3 -6 0 -12 7 -15 26 -10 2573 0 2573 10 0 14 -2571 19 -2580 5z"/>
 <path d="M2405 3700 c-3 -6 0 -12 7 -15 26 -10 598 0 598 10 0 14 -596 19 -605 5z"/>
 <path d="M3005 3670 c-4 -6 -3 -16 3 -22 6 -6 12 -6 17 2 4 6 3 16 -3 22 -6 6 -12 6 -17 -2z"/>
 <path d="M2935 3659 c-4 -6 -3 -15 3 -21 6 -6 8 -16 6 -23 -3 -7 -1 -16 5 -19 14 -9 25 14 13 26 -6 6 -8 16 -6 23 7 17 -12 29 -21 14z"/>
 <path d="M3025 3580 c-4 -6 -3 -16 3 -22 6 -6 12 -6 17 2 4 6 3 16 -3 22 -6 6 -12 6 -17 -2z"/>
 <path d="M2955 3570 c-3 -5 -3 -16 2 -22 4 -7 6 -20 5 -30 -2 -9 2 -19 7 -22 6 -4 8 -13 5 -20 -3 -8 -1 -17 4 -20 6 -3 8 -15 5 -25 -3 -10 0 -22 6 -25 5 -4 8 -13 5 -20 -6 -17 12 -31 21 -16 3 5 3 16 -2 23 -4 6 -6 19 -5 29 2 9 -2 19 -7 22 -6 4 -8 13 -5 20 3 8 1 17 -4 20 -6 3 -8 15 -5 25 3 10 0 22 -6 25 -5 4 -8 13 -5 20 6 17 -12 31 -21 16z"/>
 <path d="M3045 3490 c-4 -6 -3 -16 3 -22 6 -6 12 -6 17 2 4 6 3 16 -3 22 -6 6 -12 6 -17 -2z"/>
 <path d="M2255 3167 c-9 -22 -2 -62 10 -60 6 1 11 14 13 29 4 32 -14 56 -23 31z"/>
 <path d="M2894 2861 c-3 -3 -10 -6 -15 -6 -5 0 -9 -3 -9 -7 0 -7 5 -10 13 -7 28 8 47 7 45 -4 -2 -7 1 -14 7 -15 5 -1 9 8 9 20 0 15 -6 22 -22 23 -12 1 -25 -1 -28 -4z"/>
 <path d="M2976 2811 c-11 -12 -17 -21 -15 -22 49 -10 65 -1 46 25 -12 16 -14 16 -31 -3z"/>
 <path d="M3196 2621 c-4 -5 -2 -12 4 -16 6 -4 8 -10 5 -15 -3 -5 -1 -11 4 -14 5 -4 12 -2 15 3 4 5 2 12 -4 16 -6 4 -8 10 -5 15 3 5 1 11 -4 14 -5 4 -12 2 -15 -3z"/>
 <path d="M2685 2611 c-7 -12 12 -24 25 -16 11 7 4 25 -10 25 -5 0 -11 -4 -15 -9z"/>
 <path d="M3065 2611 c-7 -12 12 -24 25 -16 11 7 4 25 -10 25 -5 0 -11 -4 -15 -9z"/>
 <path d="M2295 2430 c-4 -6 -3 -16 3 -22 6 -6 12 -6 17 2 4 6 3 16 -3 22 -6 6 -12 6 -17 -2z"/>
 <path d="M2416 2142 c-3 -5 8 -21 23 -36 16 -15 31 -23 35 -18 3 5 -8 21 -23 36 -16 15 -31 23 -35 18z"/>
 <path d="M3075 2100 c-3 -5 0 -13 8 -16 23 -9 152 0 152 11 0 14 -151 19 -160 5z"/>
 </g>

<g fill="#346394" stroke="none">
 <path d="M2225 4897 c-10 -8 -14 -16 -9 -19 14 -9 56 11 49 22 -8 13 -18 13 -40 -3z"/>
 <path d="M2735 4900 c-4 -6 -10 -8 -15 -5 -5 3 -11 1 -14 -4 -4 -5 -2 -12 3 -15 5 -4 12 -2 16 4 4 6 10 8 15 5 5 -3 11 -1 14 4 4 5 2 12 -3 15 -5 4 -12 2 -16 -4z"/>
 <path d="M3144 4900 c-52 -21 -65 -79 -42 -179 11 -49 25 -66 44 -53 5 4 29 40 52 80 24 40 54 80 68 88 22 15 25 29 6 29 -4 0 -17 10 -29 23 -24 23 -61 28 -99 12z"/>
 <path d="M2336 4882 c-3 -6 1 -15 8 -21 8 -7 17 -8 20 -3 3 6 -1 15 -8 21 -8 7 -17 8 -20 3z"/>
 <path d="M2826 4882 c-3 -6 1 -15 8 -21 8 -7 17 -8 20 -3 3 6 -1 15 -8 21 -8 7 -17 8 -20 3z"/>
 <path d="M2179 4856 c-1 -3 -2 -9 -3 -13 -1 -5 -5 -13 -9 -20 -4 -6 -3 -14 3 -18 5 -3 11 -4 11 -1 1 3 2 9 3 14 1 4 5 12 9 19 4 6 3 14 -3 18 -5 3 -11 4 -11 1z"/>
 <path d="M2669 4856 c-1 -3 -2 -10 -3 -15 0 -5 -4 -13 -8 -17 -5 -4 -8 -17 -8 -29 0 -12 3 -25 8 -29 4 -4 7 -12 7 -17 0 -5 3 -9 8 -9 7 0 8 3 6 15 -4 23 -1 74 4 83 4 6 3 13 -3 17 -5 3 -11 4 -11 1z"/>
 <path d="M3357 4844 c-3 -6 -2 -16 4 -24 5 -8 9 -27 9 -42 0 -31 17 -47 26 -24 11 30 -25 112 -39 90z"/>
 <path d="M3455 4811 c-9 -15 35 -41 54 -31 9 5 24 11 34 14 10 3 15 10 12 16 -8 13 -92 13 -100 1z"/>
 <path d="M2166 4781 c-4 -5 -2 -12 4 -16 6 -4 8 -10 5 -15 -3 -5 -1 -11 4 -14 5 -4 12 -2 15 3 4 5 2 12 -4 16 -6 4 -8 10 -5 15 3 5 1 11 -4 14 -5 4 -12 2 -15 -3z"/>
 <path d="M2369 4776 c-1 -3 -2 -9 -3 -13 -1 -5 -5 -13 -9 -20 -4 -6 -3 -14 3 -18 5 -3 11 -4 11 -1 1 3 2 9 3 14 1 4 5 12 9 19 4 6 3 14 -3 18 -5 3 -11 4 -11 1z"/>
 <path d="M3395 4731 c-3 -6 3 -15 14 -21 12 -6 22 -6 26 -1 3 6 -3 15 -14 21 -12 6 -22 6 -26 1z"/>
 <path d="M3556 4662 c-3 -6 -2 -13 4 -17 5 -3 10 -3 10 1 0 3 7 1 15 -6 8 -6 19 -9 25 -5 14 9 1 28 -15 21 -7 -2 -17 0 -23 6 -6 6 -12 6 -16 0z"/>
 <path d="M2466 4653 c-3 -3 -6 -75 -6 -160 l0 -153 -137 -2 c-76 0 -145 -1 -153 0 -22 1 -51 -18 -45 -29 4 -5 11 -6 17 -3 6 4 80 6 165 5 106 -1 159 2 169 10 11 9 14 45 14 170 0 144 -5 180 -24 162z"/>
 <path d="M3303 4622 c-20 -14 -113 -189 -113 -212 0 -14 11 -68 25 -120 14 -52 25 -101 25 -107 0 -10 -27 -13 -104 -13 l-104 0 -32 -57 c-18 -32 -43 -71 -56 -86 -13 -16 -22 -33 -18 -38 3 -5 112 -9 248 -9 240 0 243 0 264 23 42 44 39 71 -34 352 -38 146 -74 267 -80 269 -6 2 -15 1 -21 -2z"/>
 <path d="M2555 4331 c-11 -19 17 -22 171 -20 86 0 160 -3 165 -8 10 -10 -30 -92 -54 -112 -8 -6 -72 -12 -150 -13 -190 -4 -182 -23 10 -23 l148 0 42 70 c38 64 40 71 26 87 -9 10 -19 15 -24 13 -4 -3 -10 -1 -14 5 -8 13 -312 14 -320 1z"/>
 <path d="M2496 4173 c-4 -5 -12 -8 -17 -8 -5 0 -9 -3 -9 -7 0 -8 3 -9 18 -7 4 1 12 2 17 3 13 1 19 20 8 23 -5 2 -13 0 -17 -4z"/>
 <path d="M2255 4149 c-10 -26 -1 -269 10 -272 14 -3 19 263 6 276 -7 7 -12 5 -16 -4z"/>
 <path d="M2375 3880 c-3 -6 0 -12 7 -15 25 -10 348 0 351 10 3 14 -349 19 -358 5z"/>
 <path d="M2255 3748 c-9 -22 -2 -68 10 -71 14 -3 19 63 6 76 -7 7 -12 5 -16 -5z"/>
 <path d="M2365 3700 c-8 -13 20 -24 41 -16 20 8 9 26 -16 26 -10 0 -22 -5 -25 -10z"/>
 <path d="M3845 3550 c-4 -6 -3 -16 3 -22 6 -6 12 -6 17 2 4 6 3 16 -3 22 -6 6 -12 6 -17 -2z"/>
 <path d="M2255 3509 c-10 -26 -1 -339 10 -339 14 0 19 330 6 343 -7 7 -12 5 -16 -4z"/>
 <path d="M3865 3460 c-4 -6 -3 -16 3 -22 6 -6 12 -6 17 2 4 6 3 16 -3 22 -6 6 -12 6 -17 -2z"/>
 <path d="M3885 3370 c-4 -6 -3 -16 3 -22 6 -6 12 -6 17 2 4 6 3 16 -3 22 -6 6 -12 6 -17 -2z"/>
 <path d="M3015 3300 c-4 -6 -3 -16 3 -22 6 -6 12 -6 17 2 4 6 3 16 -3 22 -6 6 -12 6 -17 -2z"/>
 <path d="M3035 3210 c-4 -6 -3 -16 3 -22 6 -6 12 -6 17 2 4 6 3 16 -3 22 -6 6 -12 6 -17 -2z"/>
 <path d="M3055 3120 c-4 -6 -3 -16 3 -22 6 -6 12 -6 17 2 4 6 3 16 -3 22 -6 6 -12 6 -17 -2z"/>
 <path d="M2259 3116 c-1 -3 -2 -9 -3 -13 -1 -5 -5 -13 -9 -20 -4 -6 -3 -14 3 -18 5 -3 11 -4 11 -1 1 3 2 9 3 14 1 4 5 12 9 19 4 6 3 14 -3 18 -5 3 -11 4 -11 1z"/>
 </g>

<g fill="#f09495" stroke="none">
 <path d="M2925 3690 c-4 -6 -3 -16 3 -22 6 -6 12 -6 17 2 4 6 3 16 -3 22 -6 6 -12 6 -17 -2z"/>
 <path d="M2945 3600 c-4 -6 -3 -16 3 -22 6 -6 12 -6 17 2 4 6 3 16 -3 22 -6 6 -12 6 -17 -2z"/>
 <path d="M2674 3056 c-19 -19 -34 -44 -34 -55 0 -12 -8 -24 -17 -27 -61 -21 -145 -67 -184 -102 -63 -56 -75 -102 -23 -82 13 5 51 14 84 19 178 29 375 -78 455 -247 24 -52 27 -66 17 -82 -17 -28 -1 -32 70 -20 35 5 86 11 113 12 l50 3 3 39 c5 60 -16 164 -46 224 -50 102 -143 186 -245 222 -45 16 -53 23 -59 52 -10 48 -49 78 -105 78 -38 0 -50 -5 -79 -34z m288 -228 c13 -13 16 -17 6 -9 -10 8 -33 12 -58 9 -36 -3 -39 -2 -24 9 26 19 50 16 76 -9z m133 -208 c-5 -8 -11 -8 -17 -2 -6 6 -7 16 -3 22 5 8 11 8 17 2 6 -6 7 -16 3 -22z"/>
 <path d="M2912 2458 c-7 -7 -12 -9 -12 -5 0 8 -75 -28 -97 -45 -7 -6 -10 -14 -8 -18 3 -5 31 6 63 23 31 18 63 32 70 32 14 0 18 18 5 22 -5 2 -14 -2 -21 -9z"/>
 <path d="M2407 2443 c-4 -4 -20 -7 -35 -7 -15 -1 -28 -5 -30 -11 -4 -13 24 -19 46 -9 9 4 22 8 27 8 13 1 19 20 8 23 -5 2 -12 0 -16 -4z"/>
 <path d="M2454 2426 c-4 -9 -1 -22 5 -30 6 -7 8 -15 5 -19 -9 -9 35 -99 45 -93 6 4 5 19 -3 39 -7 17 -17 41 -21 52 -4 11 -7 27 -6 37 3 22 -18 33 -25 14z"/>
 <path d="M2736 2351 c-21 -21 -34 -41 -29 -44 6 -4 27 11 47 32 21 21 34 41 29 44 -6 4 -27 -11 -47 -32z"/>
 <path d="M2680 2281 c-6 -12 -6 -22 -1 -26 6 -3 15 3 21 14 6 12 6 22 1 26 -6 3 -15 -3 -21 -14z"/>
 <path d="M2536 2242 c-3 -5 3 -17 13 -26 11 -10 22 -13 25 -8 3 5 -3 17 -13 26 -11 10 -22 13 -25 8z"/>
 <path d="M2651 2223 c-5 -10 -10 -22 -10 -28 -1 -5 -9 -11 -19 -11 -9 -1 -21 -2 -26 -3 -5 -1 -1 -10 9 -21 17 -19 20 -19 36 -4 10 9 17 19 16 23 0 3 4 16 11 28 7 13 8 24 3 28 -6 3 -14 -2 -20 -12z"/>
 <path d="M2606 2011 c-4 -5 -2 -12 4 -16 5 -3 10 -3 10 1 0 3 6 1 14 -5 10 -8 16 -9 21 -1 3 5 4 11 1 11 -3 1 -9 2 -13 3 -5 1 -13 5 -20 9 -6 4 -14 3 -17 -2z"/>
 <path d="M2916 2011 c-4 -6 -13 -8 -20 -5 -17 7 -30 -12 -16 -21 6 -4 16 -2 23 3 7 6 15 11 20 11 8 1 11 11 4 17 -3 3 -8 1 -11 -5z"/>
 <path d="M2675 1991 c-7 -12 12 -24 25 -16 11 7 4 25 -10 25 -5 0 -11 -4 -15 -9z"/>
 </g>

<g fill="#d65f46" stroke="none">
 <path d="M2959 2856 c-1 -3 -2 -9 -3 -13 -1 -5 -5 -13 -9 -20 -4 -6 -3 -14 3 -18 5 -3 11 -4 11 -1 1 3 2 9 3 14 1 4 5 12 9 19 4 6 3 14 -3 18 -5 3 -11 4 -11 1z"/>
 <path d="M3087 2663 c-4 -3 -2 -12 3 -19 6 -6 9 -16 8 -22 -2 -5 1 -12 6 -13 14 -6 15 40 1 51 -7 5 -15 7 -18 3z"/>
 <path d="M3175 2660 c-4 -6 -2 -17 4 -23 5 -7 8 -23 5 -34 -4 -15 0 -25 14 -32 26 -14 33 -3 19 29 -5 14 -11 31 -13 39 -4 22 -21 34 -29 21z"/>
 <path d="M3045 2640 c-4 -6 -3 -16 3 -22 6 -6 12 -6 17 2 4 6 3 16 -3 22 -6 6 -12 6 -17 -2z"/>
 <path d="M3215 2530 c-4 -6 -3 -16 3 -22 6 -6 12 -6 17 2 4 6 3 16 -3 22 -6 6 -12 6 -17 -2z"/>
 <path d="M3105 2490 c-191 -18 -271 -46 -360 -131 -47 -45 -78 -92 -105 -163 l-11 -29 -35 34 c-50 48 -93 120 -113 186 -16 54 -19 58 -47 56 -71 -5 -90 -5 -109 -2 -44 8 -24 -119 38 -234 37 -70 127 -156 199 -190 106 -50 284 -61 345 -22 14 9 27 14 30 11 9 -9 64 24 58 34 -4 7 -13 6 -25 0 -31 -16 -30 -13 5 46 18 30 39 78 46 105 11 42 16 49 37 49 14 0 38 14 58 34 29 29 34 41 34 80 0 26 -7 60 -15 76 l-15 29 43 3 c28 2 42 8 42 17 0 19 -6 19 -100 11z"/>
 <path d="M3265 2471 c-3 -6 3 -15 14 -21 12 -6 22 -6 26 -1 3 6 -3 15 -14 21 -12 6 -22 6 -26 1z"/>
 <path d="M3345 2380 c-4 -6 -3 -16 3 -22 6 -6 12 -6 17 2 4 6 3 16 -3 22 -6 6 -12 6 -17 -2z"/>
 <path d="M3345 2330 c-4 -6 -3 -16 3 -22 6 -6 12 -6 17 2 4 6 3 16 -3 22 -6 6 -12 6 -17 -2z"/>
 <path d="M3278 2239 c-14 -7 -14 -14 -6 -42 6 -17 13 -38 15 -46 3 -11 6 -12 15 -3 9 9 9 20 1 41 -7 19 -7 33 -1 39 14 14 -4 22 -24 11z"/>
 </g>

<g fill="#347ebe" stroke="none">
 <path d="M2305 4901 c-3 -6 3 -15 14 -21 12 -6 22 -6 26 -1 3 6 -3 15 -14 21 -12 6 -22 6 -26 1z"/>
 <path d="M2795 4901 c-3 -6 3 -15 14 -21 12 -6 22 -6 26 -1 3 6 -3 15 -14 21 -12 6 -22 6 -26 1z"/>
 <path d="M3156 4902 c-4 -4 -13 -7 -19 -7 -31 0 -72 -104 -47 -120 5 -3 7 -12 4 -19 -3 -8 0 -17 5 -21 6 -3 9 -10 6 -15 -3 -5 -1 -11 4 -14 5 -4 12 -2 15 3 4 5 2 12 -3 16 -6 3 -8 12 -5 19 3 8 1 17 -4 20 -14 8 2 83 23 106 10 11 21 17 26 15 4 -3 10 -1 13 4 8 12 -9 23 -18 13z"/>
 <path d="M3556 4902 c-3 -5 3 -17 13 -26 11 -10 22 -13 25 -8 3 5 -3 17 -13 26 -11 10 -22 13 -25 8z"/>
 <path d="M2191 4876 c-7 -8 -8 -17 -3 -20 6 -3 15 1 21 8 7 8 8 17 3 20 -6 3 -15 -1 -21 -8z"/>
 <path d="M2357 4863 c-4 -6 0 -18 7 -28 8 -11 16 -14 19 -8 4 6 0 18 -7 28 -8 11 -16 14 -19 8z"/>
 <path d="M3248 4854 c-15 -8 -46 -47 -70 -87 -23 -39 -48 -76 -55 -80 -7 -4 -13 -14 -13 -22 0 -7 -47 -93 -105 -190 -58 -98 -105 -179 -105 -181 0 -1 -16 -31 -36 -64 l-36 -62 -162 1 c-200 2 -401 -11 -401 -24 0 -5 32 -11 71 -13 l71 -3 -24 -46 c-17 -35 -23 -63 -23 -113 0 -103 -5 -101 200 -98 l175 3 -2 47 -3 48 333 2 c215 2 331 7 330 13 -2 6 -88 12 -220 15 -120 3 -213 8 -207 12 7 4 58 87 114 183 81 139 105 173 116 164 7 -6 11 -16 8 -24 -3 -7 -1 -16 5 -19 6 -4 8 -13 5 -20 -3 -8 0 -17 5 -21 6 -3 9 -10 6 -15 -3 -5 -1 -11 4 -14 5 -4 12 -2 15 3 4 5 2 12 -3 16 -6 3 -8 12 -5 19 3 8 0 17 -5 21 -6 3 -9 11 -6 16 4 5 3 14 -1 21 -22 35 -13 74 38 162 28 50 58 95 65 99 7 4 13 14 13 22 0 21 39 82 57 89 12 5 14 9 5 18 -7 7 -12 29 -12 50 0 74 -72 110 -142 72z"/>
 <path d="M3561 4821 c-14 -11 -19 -21 -13 -25 5 -3 20 2 33 12 29 24 11 36 -20 13z"/>
 <path d="M2864 4806 c-4 -10 -2 -22 4 -28 8 -8 13 -7 18 6 4 10 2 22 -4 28 -8 8 -13 7 -18 -6z"/>
 <path d="M2375 4800 c-4 -6 -4 -14 -1 -17 3 -3 1 -12 -5 -19 -6 -8 -6 -14 0 -18 5 -4 12 -2 16 4 3 5 3 10 -1 10 -3 0 -1 7 6 15 9 11 10 19 3 26 -8 8 -13 7 -18 -1z"/>
 <path d="M3495 4790 c-3 -5 8 -16 24 -25 18 -9 32 -11 36 -5 3 5 -8 16 -24 25 -18 9 -32 11 -36 5z"/>
 <path d="M2656 4771 c-4 -5 -2 -12 4 -16 6 -4 8 -10 5 -15 -3 -5 -1 -11 4 -14 5 -4 12 -2 15 3 4 5 2 12 -4 16 -6 4 -8 10 -5 15 3 5 1 11 -4 14 -5 4 -12 2 -15 -3z"/>
 <path d="M3585 4751 c-3 -6 3 -15 14 -21 12 -6 22 -6 26 -1 3 6 -3 15 -14 21 -12 6 -22 6 -26 1z"/>
 <path d="M3435 4711 c-3 -6 3 -15 14 -21 12 -6 22 -6 26 -1 3 6 -3 15 -14 21 -12 6 -22 6 -26 1z"/>
 <path d="M3634 4706 c-8 -21 3 -49 16 -41 5 3 10 15 10 25 0 25 -18 36 -26 16z"/>
 <path d="M3505 4680 c-3 -5 8 -16 25 -25 16 -8 30 -13 30 -9 0 4 6 2 13 -2 16 -12 47 -11 47 1 0 5 -10 10 -22 10 -13 0 -37 8 -55 18 -19 10 -34 13 -38 7z"/>
 <path d="M2843 4669 c-6 -6 -67 -11 -144 -12 -173 -2 -185 -21 -17 -25 67 -1 129 0 137 4 9 4 19 8 23 8 14 2 30 24 20 29 -5 4 -13 2 -19 -4z"/>
 <path d="M2205 4650 c-3 -5 0 -13 7 -15 25 -10 258 0 258 10 0 14 -256 19 -265 5z"/>
 <path d="M3325 4589 c-4 -6 -3 -15 3 -21 6 -6 8 -16 6 -23 -3 -7 -1 -16 5 -19 6 -4 8 -13 5 -20 -3 -8 0 -17 5 -21 6 -3 9 -10 6 -15 -3 -5 -1 -11 4 -14 5 -4 12 -2 15 3 4 5 2 12 -3 16 -6 3 -8 12 -5 19 3 8 1 17 -5 20 -6 4 -8 13 -5 20 3 8 1 17 -5 20 -6 4 -8 13 -5 20 7 17 -12 30 -21 15z"/>
 <path d="M3376 4391 c-4 -5 -2 -12 3 -16 6 -3 8 -12 5 -19 -3 -8 -1 -17 5 -20 6 -4 8 -13 5 -20 -3 -8 -1 -17 5 -20 6 -4 8 -13 5 -20 -3 -8 0 -17 5 -21 6 -3 9 -10 6 -15 -3 -5 -1 -11 4 -14 5 -4 12 -2 15 3 4 5 2 12 -3 16 -6 3 -8 12 -5 19 3 8 1 17 -5 20 -6 4 -8 13 -5 20 3 8 1 17 -5 20 -6 4 -8 13 -5 20 3 8 0 17 -5 21 -6 3 -9 10 -6 15 3 5 1 11 -4 14 -5 4 -12 2 -15 -3z"/>
 <path d="M2101 4306 c-7 -8 -8 -17 -3 -20 6 -3 15 1 21 8 7 8 8 17 3 20 -6 3 -15 -1 -21 -8z"/>
 <path d="M2074 4246 c-4 -10 -2 -22 4 -28 8 -8 13 -7 18 6 4 10 2 22 -4 28 -8 8 -13 7 -18 -6z"/>
 <path d="M3245 4180 c-4 -6 -3 -16 3 -22 6 -6 12 -6 17 2 4 6 3 16 -3 22 -6 6 -12 6 -17 -2z"/>
 <path d="M3436 4161 c-4 -5 -2 -12 3 -16 6 -3 8 -12 5 -19 -7 -17 12 -30 21 -16 4 6 2 17 -4 24 -6 7 -8 15 -5 18 3 3 1 9 -5 12 -5 4 -12 2 -15 -3z"/>
 <path d="M3443 4053 c-3 -10 -12 -25 -20 -35 -9 -10 -10 -18 -4 -22 9 -6 51 39 51 55 0 17 -21 19 -27 2z"/>
 <path d="M3905 3290 c-4 -6 -3 -16 3 -22 6 -6 12 -6 17 2 4 6 3 16 -3 22 -6 6 -12 6 -17 -2z"/>
 <path d="M3045 3150 c-4 -6 -3 -16 3 -22 6 -6 12 -6 17 2 4 6 3 16 -3 22 -6 6 -12 6 -17 -2z"/>
 <path d="M2096 3071 c-5 -8 15 -30 41 -45 26 -14 20 12 -7 32 -16 12 -31 18 -34 13z"/>
 <path d="M3065 3060 c-4 -6 -3 -16 3 -22 6 -6 12 -6 17 2 4 6 3 16 -3 22 -6 6 -12 6 -17 -2z"/>
 <path d="M1537 3000 c-12 -22 -12 -32 -4 -37 7 -5 12 -25 12 -45 0 -21 5 -39 10 -40 12 -4 17 140 5 147 -5 3 -15 -8 -23 -25z"/>
 <path d="M1785 3018 c-10 -25 0 -348 10 -351 6 -1 11 39 13 102 2 85 6 107 20 117 16 12 16 13 -1 19 -17 7 -17 8 0 20 17 13 17 14 1 20 -12 5 -18 18 -18 40 0 35 -16 56 -25 33z"/>
 <path d="M3085 3020 c-3 -6 0 -12 7 -15 26 -10 883 0 881 10 -4 14 -879 19 -888 5z"/>
 <path d="M1545 2748 c-9 -22 -2 -68 10 -71 14 -3 19 63 6 76 -7 7 -12 5 -16 -5z"/>
 <path d="M1545 2558 c-9 -22 -2 -68 10 -71 14 -3 19 63 6 76 -7 7 -12 5 -16 -5z"/>
 <path d="M4375 2080 c-4 -6 -3 -16 3 -22 6 -6 12 -6 17 2 4 6 3 16 -3 22 -6 6 -12 6 -17 -2z"/>
 <path d="M4366 1973 c-11 -11 -6 -89 6 -101 7 -7 40 -12 79 -12 54 0 68 -3 74 -17 6 -17 7 -17 19 -1 10 14 33 18 122 20 66 2 108 7 107 13 -2 6 -77 11 -193 13 l-190 2 0 40 c0 37 -10 56 -24 43z"/>
 <path d="M4567 1843 c-4 -6 0 -18 7 -28 8 -11 16 -14 19 -8 4 6 0 18 -7 28 -8 11 -16 14 -19 8z"/>
 <path d="M4716 1761 c-4 -5 -2 -12 4 -16 6 -4 8 -10 5 -15 -3 -5 -1 -11 4 -14 5 -4 12 -2 15 3 4 5 2 12 -4 16 -6 4 -8 10 -5 15 3 5 1 11 -4 14 -5 4 -12 2 -15 -3z"/>
 <path d="M4359 1726 c-1 -3 -2 -9 -3 -13 -1 -5 -5 -13 -9 -20 -4 -6 -3 -14 3 -18 5 -3 11 -4 11 -1 1 3 2 9 3 14 1 4 5 12 9 19 4 6 3 14 -3 18 -5 3 -11 4 -11 1z"/>
 <path d="M4455 1656 c-11 -8 -14 -16 -8 -19 6 -4 18 0 28 7 11 8 14 16 8 19 -6 4 -18 0 -28 -7z"/>
 <path d="M5035 1630 c-3 -5 0 -13 8 -16 24 -9 172 0 170 11 -4 14 -170 19 -178 5z"/>
 <path d="M5305 1630 c-3 -5 0 -13 8 -16 24 -9 172 0 170 11 -4 14 -170 19 -178 5z"/>
 <path d="M5585 1630 c-3 -5 0 -13 8 -16 24 -9 162 0 162 11 0 14 -161 19 -170 5z"/>
 </g>

<g fill="#e3e3e3" stroke="none">
 <path d="M2290 3703 c-29 -10 -60 -47 -66 -78 -4 -25 13 -77 91 -261 53 -126 103 -247 112 -269 21 -52 66 -95 99 -95 14 0 39 -11 56 -25 16 -14 35 -25 42 -25 18 0 36 21 36 43 0 10 13 32 29 48 37 37 79 38 119 4 35 -30 48 -31 60 -7 22 42 22 93 -4 223 -14 74 -31 163 -38 199 l-11 65 -138 3 -137 3 0 80 c0 55 -4 81 -12 83 -22 7 -222 14 -238 9z"/>
 <path d="M2891 3516 c-10 -11 -6 -46 16 -158 15 -79 33 -143 38 -142 6 0 25 29 43 63 l33 61 -17 78 c-9 42 -21 85 -26 95 -11 21 -70 23 -87 3z"/>
 <path d="M2329 2706 c-1 -3 -2 -9 -3 -13 -1 -5 -5 -13 -9 -20 -4 -6 -3 -14 3 -18 5 -3 11 -4 11 -1 1 3 2 9 3 14 1 4 5 12 9 19 4 6 3 14 -3 18 -5 3 -11 4 -11 1z"/>
 </g>

<g fill="#3b4651" stroke="none">
 <path d="M2222 4895 c-39 -17 -67 -74 -58 -118 11 -52 21 -57 117 -57 88 0 90 0 100 28 16 40 4 101 -24 129 -30 31 -90 39 -135 18z m94 -80 c12 -18 11 -24 -2 -43 -19 -27 -60 -29 -74 -3 -14 27 -13 37 6 56 21 21 53 16 70 -10z"/>
 <path d="M2713 4896 c-17 -8 -36 -23 -42 -35 -15 -27 -14 -114 1 -129 8 -8 45 -12 100 -12 99 0 108 6 108 79 0 82 -87 133 -167 97z m91 -78 c13 -19 14 -25 2 -43 -17 -26 -49 -31 -70 -10 -20 21 -20 39 0 59 22 22 50 20 68 -6z"/>
 <path d="M3226 4891 c-9 -14 17 -30 49 -29 17 0 60 -14 97 -31 85 -39 183 -44 213 -11 15 16 17 26 9 48 l-9 27 -177 3 c-98 1 -179 -2 -182 -7z"/>
 <path d="M2129 4323 c-46 -19 -50 -37 -47 -250 l3 -198 90 0 90 0 3 132 3 132 112 5 c62 4 192 9 289 12 l178 5 35 60 c38 66 42 81 21 98 -20 16 -738 20 -777 4z"/>
 <path d="M2087 3754 c-4 -4 -7 -157 -7 -339 0 -320 1 -333 20 -358 41 -51 151 -41 165 15 3 13 4 124 3 248 -3 170 -7 233 -18 258 -13 29 -13 35 3 65 11 21 17 49 15 73 l-3 39 -85 3 c-47 1 -89 0 -93 -4z"/>
 <path d="M2354 3747 c-7 -20 -2 -47 11 -50 14 -3 19 43 6 56 -7 7 -12 6 -17 -6z"/>
 <path d="M2949 3703 c-1 -2 -2 -6 -3 -10 -1 -5 -5 -13 -9 -20 -4 -6 -3 -14 3 -18 10 -6 12 -5 14 18 0 6 9 12 18 12 23 0 18 19 -4 20 -10 1 -19 0 -19 -2z"/>
 <path d="M3014 3626 c-7 -17 13 -59 25 -52 10 7 2 54 -10 62 -5 3 -12 -1 -15 -10z"/>
 <path d="M3034 3536 c-7 -17 13 -59 25 -52 10 7 2 54 -10 62 -5 3 -12 -1 -15 -10z"/>
 <path d="M3054 3446 c-3 -8 -2 -20 2 -27 4 -7 8 -27 10 -46 2 -18 6 -39 10 -45 4 -6 8 -26 10 -45 2 -18 6 -39 10 -45 4 -6 8 -26 10 -45 2 -18 6 -39 10 -45 4 -6 8 -27 10 -46 2 -20 8 -40 13 -45 5 -5 7 -15 5 -22 -7 -16 12 -29 21 -15 3 5 3 15 -1 21 -4 7 -8 27 -10 46 -2 18 -6 39 -10 45 -4 6 -8 26 -10 45 -2 18 -6 39 -10 45 -4 6 -8 26 -10 45 -2 18 -6 39 -10 45 -4 6 -8 26 -10 45 -2 18 -7 39 -11 46 -4 6 -6 19 -5 29 4 21 -16 34 -24 14z"/>
 <path d="M2905 2861 c-7 -12 12 -24 25 -16 11 7 4 25 -10 25 -5 0 -11 -4 -15 -9z"/>
 </g>

<g fill="#f6beaa" stroke="none">
 <path d="M2524 3687 c-3 -8 -4 -49 -2 -93 l3 -79 223 -5 c122 -3 222 -8 222 -12 0 -5 3 -7 8 -6 8 3 9 -2 -14 103 -9 44 -21 86 -27 93 -14 18 -406 17 -413 -1z"/>
 <path d="M2868 3473 c-9 -10 -23 -33 -33 -52 -16 -32 -16 -39 5 -147 12 -62 22 -133 23 -156 1 -24 7 -43 12 -43 20 0 74 118 74 160 -1 59 -42 248 -55 252 -6 2 -17 -4 -26 -14z"/>
 <path d="M2674 3056 c-21 -21 -32 -40 -28 -47 5 -8 12 -4 24 11 9 13 27 31 40 40 15 12 19 19 11 24 -7 4 -26 -7 -47 -28z"/>
 <path d="M2622 2968 c-7 -7 -12 -8 -12 -4 0 5 -7 3 -15 -4 -8 -7 -15 -10 -15 -6 0 4 -14 -1 -30 -9 -17 -9 -28 -20 -25 -25 4 -6 19 -3 38 7 18 9 35 18 40 19 4 1 9 3 12 4 3 1 10 3 15 4 6 0 10 5 11 9 1 15 -7 17 -19 5z"/>
 <path d="M2458 2827 c-59 -10 -71 -16 -92 -46 -14 -19 -33 -57 -42 -85 -9 -28 -30 -66 -45 -84 -33 -37 -39 -94 -15 -140 22 -43 56 -56 126 -49 42 3 62 2 64 -6 33 -126 91 -223 154 -260 l30 -17 41 84 c29 59 55 96 88 126 49 44 154 100 186 100 10 0 27 5 38 11 25 13 19 48 -18 124 -54 108 -158 198 -264 229 -70 21 -174 26 -251 13z m257 -195 c0 -18 -20 -15 -23 4 -3 10 1 15 10 12 7 -3 13 -10 13 -16z"/>
 <path d="M3127 2773 c-4 -6 0 -18 7 -28 8 -11 16 -14 19 -8 4 6 0 18 -7 28 -8 11 -16 14 -19 8z"/>
 <path d="M3157 2713 c-4 -6 0 -18 7 -28 8 -11 16 -14 19 -8 4 6 0 18 -7 28 -8 11 -16 14 -19 8z"/>
 </g>

<g fill="#cd7c3e" stroke="none">
 <path d="M1555 4898 c-3 -7 -4 -267 -3 -578 l3 -565 1290 0 1290 0 0 575 0 575 -65 0 -65 0 -3 -512 -2 -513 -1155 0 -1155 0 -2 513 -3 512 -63 3 c-44 2 -64 -1 -67 -10z"/>
 <path d="M2906 2833 c-4 -5 -12 -8 -17 -8 -5 0 -9 -3 -9 -7 0 -8 3 -9 18 -7 4 1 12 2 17 3 13 1 19 20 8 23 -5 2 -13 0 -17 -4z"/>
 <path d="M2707 2663 c-4 -3 -2 -12 3 -19 6 -6 9 -16 8 -22 -2 -5 1 -12 6 -13 14 -6 15 40 1 51 -7 5 -15 7 -18 3z"/>
 <path d="M2665 2640 c-4 -6 -3 -16 3 -22 6 -6 12 -6 17 2 4 6 3 16 -3 22 -6 6 -12 6 -17 -2z"/>
 <path d="M2316 2331 c-4 -5 -2 -12 4 -16 6 -4 8 -10 5 -15 -3 -5 -1 -11 4 -14 5 -4 12 -2 15 3 4 5 2 12 -4 16 -6 4 -8 10 -5 15 3 5 1 11 -4 14 -5 4 -12 2 -15 -3z"/>
 <path d="M2347 2253 c-4 -6 0 -18 7 -28 8 -11 16 -14 19 -8 4 6 0 18 -7 28 -8 11 -16 14 -19 8z"/>
 </g>

<g fill="#1b90ac" stroke="none">
 <path d="M4704 4567 c-3 -8 -4 -45 -2 -83 l3 -69 160 0 160 0 0 80 0 80 -158 3 c-126 2 -158 0 -163 -11z"/>
 <path d="M4704 3737 c-3 -8 -4 -45 -2 -83 l3 -69 160 0 160 0 0 80 0 80 -158 3 c-126 2 -158 0 -163 -11z"/>
 <path d="M1405 3018 c-3 -7 -4 -144 -3 -303 l3 -290 190 0 190 0 3 112 3 112 117 3 117 3 0 185 0 185 -150 0 c-148 0 -150 0 -153 -22 -3 -18 -10 -23 -32 -23 -22 0 -29 5 -32 23 -2 12 -10 22 -18 22 -8 0 -16 -10 -18 -22 -3 -18 -10 -23 -32 -23 -22 0 -29 5 -32 23 -2 12 -7 22 -13 22 -5 0 -11 -10 -13 -22 -3 -18 -10 -23 -32 -23 -22 0 -29 5 -32 23 -2 16 -11 23 -31 25 -16 2 -29 -2 -32 -10z m455 -43 c0 -8 -7 -15 -15 -15 -16 0 -20 12 -8 23 11 12 23 8 23 -8z m120 0 c0 -8 -7 -15 -15 -15 -8 0 -15 7 -15 15 0 8 7 15 15 15 8 0 15 -7 15 -15z m-360 -66 c0 -27 -3 -30 -27 -27 -22 2 -29 9 -31 31 -3 24 0 27 27 27 28 0 31 -3 31 -31z m240 6 c0 -8 -7 -15 -15 -15 -8 0 -15 7 -15 15 0 8 7 15 15 15 8 0 15 -7 15 -15z m60 0 c0 -8 -7 -15 -15 -15 -8 0 -15 7 -15 15 0 8 7 15 15 15 8 0 15 -7 15 -15z m0 -120 c0 -8 -7 -15 -15 -15 -8 0 -15 7 -15 15 0 8 7 15 15 15 8 0 15 -7 15 -15z m-300 -75 c0 -27 -3 -30 -30 -30 -25 0 -30 4 -30 23 0 30 7 37 37 37 19 0 23 -5 23 -30z m100 0 c0 -27 -3 -30 -30 -30 -25 0 -30 4 -30 23 0 30 7 37 37 37 19 0 23 -5 23 -30z m140 20 c0 -5 -7 -10 -15 -10 -8 0 -15 5 -15 10 0 6 7 10 15 10 8 0 15 -4 15 -10z m60 0 c0 -5 -7 -10 -15 -10 -8 0 -15 5 -15 10 0 6 7 10 15 10 8 0 15 -4 15 -10z m60 0 c0 -5 -7 -10 -15 -10 -8 0 -15 5 -15 10 0 6 7 10 15 10 8 0 15 -4 15 -10z m-450 -120 c0 -27 -3 -30 -30 -30 -27 0 -30 3 -30 30 0 27 3 30 30 30 27 0 30 -3 30 -30z m190 0 c0 -27 -3 -30 -30 -30 -27 0 -30 3 -30 30 0 27 3 30 30 30 27 0 30 -3 30 -30z m-192 -97 c-2 -22 -9 -29 -30 -31 -25 -3 -28 0 -28 27 0 28 3 31 31 31 27 0 30 -3 27 -27z m92 -4 c0 -27 -3 -30 -27 -27 -22 2 -29 9 -31 31 -3 24 0 27 27 27 28 0 31 -3 31 -31z"/>
 <path d="M4704 2907 c-3 -8 -4 -45 -2 -83 l3 -69 160 0 160 0 0 80 0 80 -158 3 c-126 2 -158 0 -163 -11z"/>
 <path d="M4413 2308 c-14 -18 -43 -277 -40 -363 l2 -70 205 0 205 0 -3 95 c-2 52 -11 151 -20 220 l-17 125 -161 3 c-121 2 -164 -1 -171 -10z"/>
 <path d="M4480 1840 c-86 -29 -150 -122 -138 -201 3 -21 8 -24 45 -22 75 3 163 66 179 129 8 31 15 30 35 -4 26 -46 126 -81 144 -51 13 20 -17 99 -46 123 -26 22 -105 46 -147 46 -9 -1 -42 -9 -72 -20z"/>
 <path d="M5034 1616 c-3 -8 -4 -29 -2 -48 l3 -33 90 0 90 0 0 45 0 45 -88 3 c-69 2 -88 0 -93 -12z"/>
 <path d="M5304 1616 c-3 -8 -4 -29 -2 -48 l3 -33 90 0 90 0 0 45 0 45 -88 3 c-69 2 -88 0 -93 -12z"/>
 <path d="M5574 1616 c-3 -8 -4 -29 -2 -48 l3 -33 90 0 90 0 0 45 0 45 -88 3 c-69 2 -88 0 -93 -12z"/>
 </g>

<g fill="#1a1e39" stroke="none">
 <path d="M2227 4842 c-22 -25 -21 -75 1 -95 25 -22 75 -21 95 1 22 25 21 75 -1 95 -25 22 -75 21 -95 -1z"/>
 <path d="M2716 4838 c-34 -48 -7 -108 48 -108 19 0 40 8 49 18 22 25 21 75 -1 95 -27 25 -78 22 -96 -5z"/>
 <path d="M3007 3753 c-4 -3 -7 -18 -7 -32 0 -31 136 -657 150 -688 l10 -23 400 0 c364 0 401 2 407 17 4 9 -26 163 -65 342 -39 179 -73 340 -74 356 l-3 30 -406 3 c-223 1 -408 -1 -412 -5z"/>
 <path d="M2850 2842 c-16 -13 -23 -30 -24 -58 -1 -47 22 -54 42 -12 19 41 48 53 77 34 13 -9 25 -26 27 -38 4 -27 35 -37 44 -14 9 23 -3 63 -26 86 -27 27 -108 28 -140 2z"/>
 <path d="M2674 2646 c-11 -28 4 -48 33 -44 22 2 28 8 28 28 0 20 -6 26 -28 28 -18 2 -29 -2 -33 -12z"/>
 <path d="M3054 2646 c-11 -28 4 -48 33 -44 22 2 28 8 28 28 0 20 -6 26 -28 28 -18 2 -29 -2 -33 -12z"/>
 </g>

<g fill="#90d2ed" stroke="none">
 <path d="M4295 4888 c-3 -7 -4 -589 -2 -1293 l2 -1280 342 -3 343 -2 2 -423 3 -422 410 0 410 0 3 422 2 422 28 3 27 3 0 1290 0 1290 -783 3 c-621 2 -784 0 -787 -10z m715 -393 l0 -65 -150 0 -150 0 0 58 c0 32 3 62 7 65 3 4 71 7 150 7 l143 0 0 -65z m0 -830 l0 -65 -150 0 -150 0 0 65 0 65 150 0 150 0 0 -65z m0 -830 l0 -65 -150 0 -150 0 0 65 0 65 150 0 150 0 0 -65z m190 -1250 l0 -35 -75 0 -75 0 0 35 0 35 75 0 75 0 0 -35z m270 0 l0 -35 -75 0 -75 0 0 35 0 35 75 0 75 0 0 -35z m278 -2 l3 -33 -80 0 -81 0 0 35 0 36 78 -3 77 -3 3 -32z"/>
 <path d="M2375 4071 c-9 -18 -11 -32 -5 -36 5 -3 16 8 25 24 9 18 11 32 5 36 -5 3 -16 -8 -25 -24z"/>
 <path d="M2354 3997 c-7 -20 -2 -47 11 -50 14 -3 19 43 6 56 -7 7 -12 6 -17 -6z"/>
 <path d="M2706 3981 c-4 -5 -2 -12 3 -15 5 -3 7 -15 4 -25 -3 -10 0 -22 6 -25 5 -4 8 -13 5 -20 -13 -35 11 -36 657 -34 416 2 633 6 632 13 -2 6 -222 11 -630 13 -425 1 -630 6 -639 13 -7 6 -10 17 -7 25 3 8 -1 22 -8 31 -8 9 -12 18 -11 20 2 3 1 7 -1 9 -3 3 -8 1 -11 -5z"/>
 <path d="M2365 3901 c-6 -6 -30 -11 -55 -13 -62 -4 -52 -22 15 -26 44 -2 57 0 61 13 8 20 -8 39 -21 26z"/>
 <path d="M1675 3880 c-3 -6 0 -12 7 -15 26 -10 398 0 398 10 0 14 -396 19 -405 5z"/>
 <path d="M1545 3868 c-9 -24 -1 -103 10 -103 14 0 19 95 6 108 -7 7 -12 5 -16 -5z"/>
 <path d="M2272 3694 c-32 -22 -18 -35 18 -17 17 8 28 19 25 24 -8 13 -17 11 -43 -7z"/>
 <path d="M2257 3524 c-4 -4 -3 -12 0 -18 4 -6 8 -15 9 -21 1 -5 27 -71 59 -145 31 -74 59 -140 62 -147 3 -8 -14 -13 -59 -15 l-63 -3 -6 -44 c-4 -31 -14 -51 -33 -68 -56 -48 -116 -18 -125 63 l-6 49 -480 0 -480 0 0 -650 0 -650 955 0 955 0 3 89 c2 49 -1 93 -7 99 -6 6 -37 -5 -84 -28 -65 -32 -88 -38 -164 -42 -93 -5 -175 13 -251 58 -28 16 -34 17 -38 4 -5 -13 -36 -15 -190 -15 l-184 0 0 159 c0 150 1 159 20 164 18 5 20 14 20 87 0 73 -2 82 -20 87 -19 5 -20 14 -20 239 l0 234 162 0 c193 0 276 -14 289 -48 8 -20 12 -21 30 -11 22 11 22 11 -7 35 -16 13 -40 26 -54 30 -70 16 -65 8 -187 293 -41 97 -80 182 -86 190 -7 8 -10 16 -9 18 6 8 -4 13 -11 7z m-207 -748 c0 -225 -1 -234 -20 -239 -18 -5 -20 -14 -20 -87 0 -73 2 -82 20 -87 19 -5 20 -14 20 -164 l0 -159 -385 0 -385 0 0 129 0 130 28 3 27 3 0 145 0 145 -27 3 -28 3 0 205 0 204 385 0 385 0 0 -234z"/>
 <path d="M2800 3515 c-14 -16 -10 -18 38 -15 31 1 32 1 22 -27 -6 -15 -20 -35 -32 -44 -13 -10 -19 -23 -15 -33 10 -25 25 -19 43 17 10 17 26 44 37 59 29 39 17 58 -36 58 -27 0 -49 -6 -57 -15z"/>
 <path d="M2805 3470 c-4 -6 -3 -16 3 -22 6 -6 12 -6 17 2 4 6 3 16 -3 22 -6 6 -12 6 -17 -2z"/>
 <path d="M2993 3338 c-6 -7 -41 -73 -78 -147 -76 -153 -90 -213 -52 -232 12 -7 23 -11 25 -10 8 6 125 -66 169 -104 57 -50 80 -49 31 2 l-33 34 -5 147 -5 147 -47 3 -47 3 36 75 c23 49 32 79 26 85 -6 6 -13 5 -20 -3z m-93 -349 c0 -24 -23 -21 -28 4 -2 10 3 17 12 17 10 0 16 -9 16 -21z"/>
 <path d="M2489 2912 c-29 -24 -11 -36 20 -13 14 11 19 21 13 25 -5 3 -20 -2 -33 -12z"/>
 <path d="M2421 2856 c-13 -13 -18 -26 -13 -30 5 -3 19 5 31 18 13 13 18 26 13 30 -5 3 -19 -5 -31 -18z"/>
 <path d="M2355 2765 c-15 -24 -28 -50 -29 -57 -1 -7 -5 -19 -9 -25 -5 -7 -5 -13 -2 -13 4 0 -8 -18 -25 -40 -18 -22 -33 -46 -34 -53 -1 -6 -5 -18 -10 -25 -10 -16 -1 -56 21 -88 19 -29 38 -21 21 9 -6 12 -14 36 -18 54 -7 28 -3 38 27 73 20 23 33 44 29 47 -3 3 -1 12 5 20 6 7 8 13 4 13 -4 0 -3 6 2 13 29 37 62 107 54 112 -6 3 -22 -15 -36 -40z"/>
 <path d="M3137 2764 c-9 -10 22 -66 33 -59 6 4 4 18 -5 36 -17 31 -18 32 -28 23z"/>
 <path d="M3306 2452 c-3 -6 1 -15 8 -21 8 -7 17 -8 20 -3 3 6 -1 15 -8 21 -8 7 -17 8 -20 3z"/>
 <path d="M2316 2321 c-4 -5 -2 -12 4 -16 6 -4 8 -10 5 -15 -3 -5 -1 -11 4 -14 5 -4 12 -2 15 3 4 5 2 12 -4 16 -6 4 -8 10 -5 15 3 5 1 11 -4 14 -5 4 -12 2 -15 -3z"/>
 <path d="M3276 2231 c-4 -5 -2 -12 4 -16 6 -4 8 -10 5 -15 -3 -5 -1 -11 4 -14 5 -4 12 -2 15 3 4 5 2 12 -4 16 -6 4 -8 10 -5 15 3 5 1 11 -4 14 -5 4 -12 2 -15 -3z"/>
 <path d="M3265 2120 c-10 -11 -21 -17 -26 -15 -4 3 -10 1 -13 -4 -4 -5 -2 -12 3 -15 5 -4 12 -2 16 4 4 6 10 8 14 5 5 -2 16 4 25 14 10 11 13 22 8 25 -5 3 -17 -3 -27 -14z"/>
 <path d="M2466 2092 c-3 -6 1 -15 8 -21 8 -7 17 -8 20 -3 3 6 -1 15 -8 21 -8 7 -17 8 -20 3z"/>
 </g>

<g fill="#4dc1eb" stroke="none">
 <path d="M0 3000 l0 -3000 3500 0 3500 0 0 3000 0 3000 -3500 0 -3500 0 0 -3000z m1672 1383 l3 -508 210 0 210 0 2 184 c1 102 4 195 7 207 11 41 41 49 211 54 l160 5 0 160 0 160 -132 5 c-107 4 -136 8 -149 22 -15 14 -15 20 -4 33 11 13 11 23 0 55 -16 49 0 94 41 115 44 23 77 18 111 -15 27 -27 29 -36 26 -83 l-3 -52 155 0 155 0 -3 48 c-3 43 0 51 31 82 55 55 122 42 152 -29 11 -26 11 -36 -1 -65 -8 -20 -12 -47 -9 -62 4 -17 1 -30 -7 -36 -7 -4 -74 -10 -148 -13 l-135 -5 0 -160 0 -160 160 -7 c88 -3 174 -8 190 -10 29 -3 33 2 134 171 l103 173 -21 79 c-20 73 -21 81 -6 109 9 17 27 35 41 40 38 15 397 13 412 -2 32 -32 1 -68 -57 -68 -55 0 -44 -20 32 -55 93 -43 108 -59 80 -86 l-20 -21 -106 47 c-121 52 -129 51 -165 -17 l-23 -43 70 -269 c39 -148 71 -278 71 -288 0 -28 -17 -56 -43 -70 -16 -10 -112 -14 -357 -18 l-335 -5 3 -44 c1 -25 8 -51 14 -58 8 -11 132 -13 647 -11 l636 3 3 508 2 507 50 0 50 0 0 -565 0 -564 -152 -3 c-149 -3 -153 -4 -156 -25 -2 -16 105 -529 145 -690 l5 -23 -430 0 c-310 0 -433 3 -438 11 -4 7 -21 75 -38 153 -23 105 -35 141 -46 141 -17 0 -94 -140 -85 -155 3 -6 28 -10 56 -10 l49 0 0 -143 c0 -142 0 -144 26 -168 65 -60 135 -200 158 -313 12 -57 15 -62 55 -81 69 -33 99 -101 70 -158 -6 -12 -24 -34 -40 -49 -26 -24 -28 -30 -17 -52 15 -34 -2 -73 -38 -86 -14 -6 -59 -10 -100 -10 -112 0 -114 -2 -114 -115 l0 -95 -940 0 -940 0 0 635 0 635 473 2 472 3 0 295 0 295 -261 3 c-197 2 -263 5 -265 15 -2 6 -3 261 -1 565 l3 552 50 0 49 0 2 -507z m3748 107 l0 -390 -555 0 -555 0 0 390 0 390 555 0 555 0 0 -390z m430 0 l0 -390 -200 0 -200 0 0 390 0 390 200 0 200 0 0 -390z m-432 -827 l2 -393 -555 0 -555 0 0 395 0 395 553 -2 552 -3 3 -392z m432 2 l0 -395 -200 0 -200 0 0 395 0 395 200 0 200 0 0 -395z m-430 -885 l-1 -450 -555 0 -554 0 0 450 0 450 555 0 556 0 -1 -450z m430 0 l0 -450 -200 0 -200 0 0 450 0 450 200 0 200 0 0 -450z m-1107 -612 c10 -73 17 -141 17 -150 0 -17 -16 -18 -185 -18 -167 0 -185 2 -185 17 0 23 30 255 35 271 3 9 43 12 153 12 l148 0 17 -132z m777 -278 l0 -410 -260 0 -260 0 0 410 0 410 260 0 260 0 0 -410z m270 0 l0 -410 -120 0 -120 0 0 410 0 410 120 0 120 0 0 -410z m-1022 33 l-3 -38 -190 0 -190 0 -3 38 -3 37 196 0 196 0 -3 -37z m-208 -103 c0 -34 -29 -93 -63 -128 -28 -29 -123 -70 -135 -57 -9 9 9 74 31 105 28 41 62 67 113 85 52 19 54 18 54 -5z m101 -13 c32 -21 77 -92 66 -104 -9 -8 -73 16 -90 35 -9 10 -23 34 -32 55 -14 35 -14 37 3 37 11 0 34 -10 53 -23z"/>
 <path d="M3168 4393 c-34 -40 -129 -216 -124 -229 5 -12 26 -14 108 -12 102 3 103 3 106 28 3 33 -50 222 -64 227 -6 2 -17 -4 -26 -14z"/>
 <path d="M2264 4137 c-2 -7 -3 -69 -2 -138 l3 -124 58 -3 c66 -3 74 5 58 65 -13 47 6 120 44 165 14 16 23 34 19 39 -9 15 -174 11 -180 -4z"/>
 <path d="M2267 3754 c-10 -10 -9 -62 2 -68 4 -3 28 -2 52 2 40 7 44 10 44 37 0 28 -2 30 -45 33 -25 2 -49 0 -53 -4z"/>
 <path d="M2805 3510 c-8 -14 4 -91 17 -107 6 -7 14 -10 19 -7 16 9 60 104 54 114 -8 13 -82 13 -90 0z"/>
 <path d="M2265 3479 c-3 -8 -4 -82 -3 -164 l3 -150 68 -3 c53 -2 69 0 73 12 6 17 -100 281 -122 305 -12 13 -14 13 -19 0z"/>
 <path d="M1265 3018 c-3 -8 -4 -108 -3 -223 l3 -210 28 -3 27 -3 0 -129 0 -129 -27 -3 -28 -3 0 -145 0 -145 400 0 400 0 3 173 c2 167 2 174 -18 179 -18 5 -20 13 -20 73 0 59 2 68 20 73 20 5 20 12 18 254 l-3 248 -25 0 -25 0 -3 -178 -2 -178 -103 3 -102 3 -5 173 c-3 102 -9 173 -15 175 -6 1 -11 -102 -13 -290 l-2 -293 -175 0 -175 0 -2 293 -3 292 -73 3 c-53 2 -74 -1 -77 -10z"/>
 <path d="M1454 3015 c-14 -36 0 -50 50 -51 l49 -1 1 -49 1 -49 40 0 40 0 1 49 1 49 49 1 c48 1 49 2 49 31 l0 30 -138 2 c-109 1 -139 -1 -143 -12z"/>
 <path d="M2117 3024 c-4 -4 -7 -117 -7 -252 0 -235 1 -244 20 -249 18 -5 20 -14 20 -73 0 -60 -2 -68 -20 -73 -20 -5 -20 -12 -18 -179 l3 -173 209 -3 c121 -1 214 2 219 7 6 6 0 16 -14 28 -109 84 -178 190 -206 316 -9 40 -25 85 -36 101 -26 37 -26 80 1 114 12 15 27 38 33 52 74 164 130 233 232 283 31 15 58 31 61 36 9 13 -43 56 -72 59 -60 8 -418 13 -425 6z"/>
 <path d="M2844 3016 c-10 -25 23 -68 49 -64 18 2 22 10 22 38 0 32 -3 35 -33 38 -22 2 -34 -2 -38 -12z"/>
 <path d="M1814 2997 c-3 -8 -4 -36 -2 -63 l3 -49 60 0 c58 0 60 1 63 27 3 21 9 27 30 30 23 2 27 8 27 33 0 27 -3 30 -30 30 -25 0 -30 -4 -33 -27 -3 -22 -9 -28 -27 -28 -18 0 -24 6 -27 28 -2 21 -9 28 -31 30 -17 2 -29 -2 -33 -11z"/>
 <path d="M1877 2824 c-4 -4 -7 -18 -7 -30 0 -17 -7 -23 -27 -26 -22 -2 -28 -8 -28 -28 0 -25 1 -25 90 -25 89 0 90 0 90 25 0 20 -6 26 -27 28 -21 3 -27 9 -30 30 -2 20 -9 28 -28 30 -14 2 -29 0 -33 -4z"/>
 <path d="M1554 2755 c-3 -7 -4 -28 -2 -47 3 -32 5 -33 47 -34 l44 -1 1 -49 1 -49 45 0 45 0 0 95 0 95 -88 2 c-66 2 -89 -1 -93 -12z"/>
 <path d="M1455 2658 c-2 -7 -3 -51 -2 -98 l2 -85 90 0 90 0 0 45 0 45 -44 1 -44 1 -1 49 -1 49 -43 3 c-28 2 -44 -1 -47 -10z"/>
 <path d="M4695 4558 c-9 -24 -1 -143 10 -143 13 0 19 135 6 148 -7 7 -12 5 -16 -5z"/>
 <path d="M4695 3738 c-10 -24 -1 -153 10 -153 13 0 19 145 6 158 -7 7 -12 5 -16 -5z"/>
 <path d="M4695 2908 c-10 -24 -1 -153 10 -153 13 0 19 145 6 158 -7 7 -12 5 -16 -5z"/>
 <path d="M5745 1618 c-9 -23 -2 -83 10 -83 14 0 19 75 6 88 -7 7 -12 5 -16 -5z"/>
 </g>

</svg>